Palanquin Regular.ufo
<glyph name="L" format="1">
  <advance width="516"/>
  <unicode hex="004C"/>
  <outline>
    <contour>
      <point x="498" y="0" type="line"/>
      <point x="489" y="63" type="line"/>
      <point x="178" y="63" type="line"/>
      <point x="178" y="680" type="line"/>
      <point x="100" y="680" type="line"/>
      <point x="100" y="0" type="line"/>
    </contour>
  </outline>
</glyph>
<glyph name="dv_Ha" format="1">
  <advance width="543"/>
  <unicode hex="0939"/>
  <outline>
    <contour>
      <point x="460" y="338" type="curve"/>
      <point x="406" y="357"/>
      <point x="353" y="362"/>
      <point x="301" y="362" type="curve" smooth="yes"/>
      <point x="281" y="362"/>
      <point x="266" y="359"/>
      <point x="238" y="359" type="curve" smooth="yes"/>
      <point x="199" y="359"/>
      <point x="166" y="383"/>
      <point x="166" y="415" type="curve" smooth="yes"/>
      <point x="166" y="448"/>
      <point x="199" y="472"/>
      <point x="239" y="472" type="curve" smooth="yes"/>
      <point x="449" y="472" type="line"/>
      <point x="449" y="611" type="line"/>
      <point x="554" y="611" type="line"/>
      <point x="539" y="680" type="line"/>
      <point x="-11" y="680" type="line"/>
      <point x="-5" y="657"/>
      <point x="-1" y="634"/>
      <point x="3" y="611" type="curve"/>
      <point x="361" y="611" type="line"/>
      <point x="361" y="542" type="line"/>
      <point x="235" y="542" type="line" smooth="yes"/>
      <point x="145" y="542"/>
      <point x="84" y="490"/>
      <point x="84" y="413" type="curve" smooth="yes"/>
      <point x="84" y="376"/>
      <point x="104" y="342"/>
      <point x="144" y="318" type="curve"/>
      <point x="93" y="282"/>
      <point x="63" y="232"/>
      <point x="63" y="172" type="curve" smooth="yes"/>
      <point x="63" y="54"/>
      <point x="154" y="-18"/>
      <point x="312" y="-18" type="curve" smooth="yes"/>
      <point x="367" y="-18"/>
      <point x="412" y="-11"/>
      <point x="460" y="2" type="curve"/>
      <point x="454" y="26"/>
      <point x="446" y="50"/>
      <point x="440" y="74" type="curve"/>
      <point x="399" y="62"/>
      <point x="359" y="56"/>
      <point x="318" y="56" type="curve" smooth="yes"/>
      <point x="220" y="56"/>
      <point x="155" y="99"/>
      <point x="155" y="165" type="curve" smooth="yes"/>
      <point x="155" y="229"/>
      <point x="194" y="290"/>
      <point x="306" y="290" type="curve" smooth="yes"/>
      <point x="351" y="290"/>
      <point x="396" y="281"/>
      <point x="440" y="266" type="curve"/>
      <point x="446" y="290"/>
      <point x="454" y="315"/>
    </contour>
  </outline>
</glyph>
<glyph name="dv_BhHa" format="1">
  <advance width="951"/>
  <outline>
    <contour>
      <point x="868" y="338" type="curve"/>
      <point x="814" y="357"/>
      <point x="761" y="362"/>
      <point x="709" y="362" type="curve" smooth="yes"/>
      <point x="689" y="362"/>
      <point x="674" y="359"/>
      <point x="646" y="359" type="curve" smooth="yes"/>
      <point x="607" y="359"/>
      <point x="574" y="383"/>
      <point x="574" y="415" type="curve" smooth="yes"/>
      <point x="574" y="448"/>
      <point x="607" y="472"/>
      <point x="647" y="472" type="curve" smooth="yes"/>
      <point x="857" y="472" type="line"/>
      <point x="857" y="611" type="line"/>
      <point x="962" y="611" type="line"/>
      <point x="947" y="680" type="line"/>
      <point x="397" y="680" type="line"/>
      <point x="403" y="657"/>
      <point x="407" y="634"/>
      <point x="411" y="611" type="curve"/>
      <point x="769" y="611" type="line"/>
      <point x="769" y="542" type="line"/>
      <point x="643" y="542" type="line" smooth="yes"/>
      <point x="553" y="542"/>
      <point x="492" y="490"/>
      <point x="492" y="413" type="curve" smooth="yes"/>
      <point x="492" y="378"/>
      <point x="510" y="345"/>
      <point x="545" y="322" type="curve"/>
      <point x="293" y="322" type="line"/>
      <point x="293" y="530" type="line" smooth="yes"/>
      <point x="293" y="630"/>
      <point x="243" y="695"/>
      <point x="158" y="695" type="curve" smooth="yes"/>
      <point x="94" y="695"/>
      <point x="36" y="650"/>
      <point x="36" y="585" type="curve" smooth="yes"/>
      <point x="36" y="518"/>
      <point x="83" y="470"/>
      <point x="155" y="470" type="curve" smooth="yes"/>
      <point x="169" y="470"/>
      <point x="191" y="474"/>
      <point x="208" y="484" type="curve"/>
      <point x="208" y="322" type="line"/>
      <point x="174" y="322"/>
      <point x="139" y="320"/>
      <point x="139" y="281" type="curve" smooth="yes"/>
      <point x="139" y="229"/>
      <point x="195" y="171"/>
      <point x="258" y="171" type="curve" smooth="yes"/>
      <point x="281" y="171"/>
      <point x="297" y="207"/>
      <point x="297" y="255" type="curve"/>
      <point x="493" y="255" type="line"/>
      <point x="479" y="230"/>
      <point x="471" y="202"/>
      <point x="471" y="172" type="curve" smooth="yes"/>
      <point x="471" y="54"/>
      <point x="562" y="-18"/>
      <point x="720" y="-18" type="curve" smooth="yes"/>
      <point x="775" y="-18"/>
      <point x="820" y="-11"/>
      <point x="868" y="2" type="curve"/>
      <point x="862" y="26"/>
      <point x="854" y="50"/>
      <point x="848" y="74" type="curve"/>
      <point x="807" y="62"/>
      <point x="767" y="56"/>
      <point x="726" y="56" type="curve" smooth="yes"/>
      <point x="628" y="56"/>
      <point x="563" y="99"/>
      <point x="563" y="165" type="curve" smooth="yes"/>
      <point x="563" y="229"/>
      <point x="602" y="290"/>
      <point x="714" y="290" type="curve" smooth="yes"/>
      <point x="759" y="290"/>
      <point x="804" y="281"/>
      <point x="848" y="266" type="curve"/>
      <point x="854" y="290"/>
      <point x="862" y="315"/>
    </contour>
    <contour>
      <point x="160" y="535" type="curve" smooth="yes"/>
      <point x="136" y="535"/>
      <point x="115" y="552"/>
      <point x="115" y="578" type="curve" smooth="yes"/>
      <point x="115" y="607"/>
      <point x="134" y="623"/>
      <point x="158" y="623" type="curve" smooth="yes"/>
      <point x="190" y="623"/>
      <point x="207" y="597"/>
      <point x="208" y="554" type="curve"/>
      <point x="194" y="542"/>
      <point x="175" y="535"/>
    </contour>
  </outline>
</glyph>
<glyph name="dv_CHa" format="1">
  <advance width="930"/>
  <outline>
    <contour>
      <point x="847" y="338" type="curve"/>
      <point x="793" y="357"/>
      <point x="740" y="362"/>
      <point x="688" y="362" type="curve" smooth="yes"/>
      <point x="668" y="362"/>
      <point x="653" y="359"/>
      <point x="625" y="359" type="curve" smooth="yes"/>
      <point x="586" y="359"/>
      <point x="553" y="383"/>
      <point x="553" y="415" type="curve" smooth="yes"/>
      <point x="553" y="448"/>
      <point x="586" y="472"/>
      <point x="626" y="472" type="curve" smooth="yes"/>
      <point x="836" y="472" type="line"/>
      <point x="836" y="611" type="line"/>
      <point x="941" y="611" type="line"/>
      <point x="926" y="680" type="line"/>
      <point x="-11" y="680" type="line"/>
      <point x="-5" y="657"/>
      <point x="-1" y="634"/>
      <point x="3" y="611" type="curve"/>
      <point x="748" y="611" type="line"/>
      <point x="748" y="542" type="line"/>
      <point x="622" y="542" type="line" smooth="yes"/>
      <point x="532" y="542"/>
      <point x="471" y="490"/>
      <point x="471" y="413" type="curve" smooth="yes"/>
      <point x="471" y="376"/>
      <point x="491" y="342"/>
      <point x="531" y="318" type="curve"/>
      <point x="484" y="285"/>
      <point x="455" y="240"/>
      <point x="450" y="187" type="curve"/>
      <point x="427" y="174"/>
      <point x="398" y="167"/>
      <point x="366" y="167" type="curve" smooth="yes"/>
      <point x="284" y="167"/>
      <point x="228" y="212"/>
      <point x="228" y="286" type="curve" smooth="yes"/>
      <point x="228" y="357"/>
      <point x="276" y="406"/>
      <point x="379" y="406" type="curve" smooth="yes"/>
      <point x="427" y="406" type="line"/>
      <point x="410" y="477" type="line"/>
      <point x="39" y="477" type="line"/>
      <point x="53" y="406" type="line"/>
      <point x="192" y="406" type="line"/>
      <point x="163" y="376"/>
      <point x="145" y="337"/>
      <point x="145" y="286" type="curve" smooth="yes"/>
      <point x="145" y="161"/>
      <point x="242" y="95"/>
      <point x="366" y="95" type="curve" smooth="yes"/>
      <point x="399" y="95"/>
      <point x="431" y="100"/>
      <point x="459" y="110" type="curve"/>
      <point x="487" y="29"/>
      <point x="571" y="-18"/>
      <point x="699" y="-18" type="curve" smooth="yes"/>
      <point x="754" y="-18"/>
      <point x="799" y="-11"/>
      <point x="847" y="2" type="curve"/>
      <point x="841" y="26"/>
      <point x="833" y="50"/>
      <point x="827" y="74" type="curve"/>
      <point x="786" y="62"/>
      <point x="746" y="56"/>
      <point x="705" y="56" type="curve" smooth="yes"/>
      <point x="607" y="56"/>
      <point x="542" y="99"/>
      <point x="542" y="165" type="curve" smooth="yes"/>
      <point x="542" y="229"/>
      <point x="581" y="290"/>
      <point x="693" y="290" type="curve" smooth="yes"/>
      <point x="738" y="290"/>
      <point x="783" y="281"/>
      <point x="827" y="266" type="curve"/>
      <point x="833" y="290"/>
      <point x="841" y="315"/>
    </contour>
  </outline>
</glyph>
<glyph name="dv_DhHa" format="1">
  <advance width="927"/>
  <outline>
    <contour>
      <point x="844" y="338" type="curve"/>
      <point x="790" y="357"/>
      <point x="737" y="362"/>
      <point x="685" y="362" type="curve" smooth="yes"/>
      <point x="665" y="362"/>
      <point x="650" y="359"/>
      <point x="622" y="359" type="curve" smooth="yes"/>
      <point x="583" y="359"/>
      <point x="550" y="383"/>
      <point x="550" y="415" type="curve" smooth="yes"/>
      <point x="550" y="448"/>
      <point x="583" y="472"/>
      <point x="623" y="472" type="curve" smooth="yes"/>
      <point x="833" y="472" type="line"/>
      <point x="833" y="611" type="line"/>
      <point x="938" y="611" type="line"/>
      <point x="923" y="680" type="line"/>
      <point x="416" y="680" type="line"/>
      <point x="422" y="657"/>
      <point x="426" y="634"/>
      <point x="430" y="611" type="curve"/>
      <point x="745" y="611" type="line"/>
      <point x="745" y="542" type="line"/>
      <point x="619" y="542" type="line" smooth="yes"/>
      <point x="529" y="542"/>
      <point x="468" y="490"/>
      <point x="468" y="413" type="curve" smooth="yes"/>
      <point x="468" y="376"/>
      <point x="488" y="342"/>
      <point x="528" y="318" type="curve"/>
      <point x="496" y="295"/>
      <point x="472" y="267"/>
      <point x="459" y="235" type="curve"/>
      <point x="417" y="179"/>
      <point x="360" y="155"/>
      <point x="292" y="155" type="curve" smooth="yes"/>
      <point x="215" y="155"/>
      <point x="161" y="201"/>
      <point x="161" y="257" type="curve" smooth="yes"/>
      <point x="161" y="317"/>
      <point x="196" y="371"/>
      <point x="302" y="371" type="curve" smooth="yes"/>
      <point x="355" y="371" type="line"/>
      <point x="335" y="434" type="line"/>
      <point x="296" y="434" type="line" smooth="yes"/>
      <point x="211" y="434"/>
      <point x="170" y="475"/>
      <point x="170" y="533" type="curve" smooth="yes"/>
      <point x="170" y="584"/>
      <point x="219" y="620"/>
      <point x="263" y="620" type="curve" smooth="yes"/>
      <point x="303" y="620"/>
      <point x="333" y="608"/>
      <point x="354" y="587" type="curve"/>
      <point x="393" y="640" type="line"/>
      <point x="375" y="663"/>
      <point x="324" y="694"/>
      <point x="261" y="694" type="curve" smooth="yes"/>
      <point x="152" y="694"/>
      <point x="84" y="620"/>
      <point x="84" y="535" type="curve" smooth="yes"/>
      <point x="84" y="477"/>
      <point x="114" y="424"/>
      <point x="161" y="404" type="curve"/>
      <point x="104" y="385"/>
      <point x="73" y="323"/>
      <point x="73" y="257" type="curve" smooth="yes"/>
      <point x="73" y="160"/>
      <point x="151" y="79"/>
      <point x="288" y="79" type="curve" smooth="yes"/>
      <point x="350" y="79"/>
      <point x="406" y="96"/>
      <point x="452" y="127" type="curve"/>
      <point x="473" y="36"/>
      <point x="559" y="-18"/>
      <point x="696" y="-18" type="curve" smooth="yes"/>
      <point x="751" y="-18"/>
      <point x="796" y="-11"/>
      <point x="844" y="2" type="curve"/>
      <point x="838" y="26"/>
      <point x="830" y="50"/>
      <point x="824" y="74" type="curve"/>
      <point x="783" y="62"/>
      <point x="743" y="56"/>
      <point x="702" y="56" type="curve" smooth="yes"/>
      <point x="604" y="56"/>
      <point x="539" y="99"/>
      <point x="539" y="165" type="curve" smooth="yes"/>
      <point x="539" y="229"/>
      <point x="578" y="290"/>
      <point x="690" y="290" type="curve" smooth="yes"/>
      <point x="735" y="290"/>
      <point x="780" y="281"/>
      <point x="824" y="266" type="curve"/>
      <point x="830" y="290"/>
      <point x="838" y="315"/>
    </contour>
  </outline>
</glyph>
<glyph name="dv_GRYa" format="1">
  <advance width="955"/>
  <outline>
    <contour>
      <point x="477" y="510" type="curve" smooth="yes"/>
      <point x="477" y="440"/>
      <point x="436" y="390"/>
      <point x="401" y="379" type="curve"/>
      <point x="386" y="362" type="line"/>
      <point x="386" y="259"/>
      <point x="489" y="184"/>
      <point x="605" y="173" type="curve"/>
      <point x="537" y="121"/>
      <point x="468" y="71"/>
      <point x="401" y="20" type="curve"/>
      <point x="421" y="3"/>
      <point x="441" y="-12"/>
      <point x="462" y="-28" type="curve"/>
      <point x="753" y="199" type="line"/>
      <point x="753" y="0" type="line"/>
      <point x="782" y="-5"/>
      <point x="810" y="-11"/>
      <point x="840" y="-16" type="curve"/>
      <point x="840" y="611" type="line"/>
      <point x="967" y="611" type="line"/>
      <point x="962" y="634"/>
      <point x="957" y="657"/>
      <point x="951" y="680" type="curve"/>
      <point x="-11" y="680" type="line"/>
      <point x="-5" y="657"/>
      <point x="-1" y="634"/>
      <point x="3" y="611" type="curve"/>
      <point x="124" y="611" type="line"/>
      <point x="124" y="324" type="line"/>
      <point x="89" y="324"/>
      <point x="56" y="320"/>
      <point x="56" y="284" type="curve" smooth="yes"/>
      <point x="56" y="236"/>
      <point x="111" y="171"/>
      <point x="175" y="171" type="curve" smooth="yes"/>
      <point x="199" y="171"/>
      <point x="211" y="191"/>
      <point x="211" y="222" type="curve" smooth="yes"/>
      <point x="211" y="611" type="line"/>
      <point x="405" y="611" type="line"/>
      <point x="449" y="597"/>
      <point x="477" y="560"/>
    </contour>
    <contour>
      <point x="753" y="611" type="line"/>
      <point x="753" y="379" type="line"/>
      <point x="751" y="294"/>
      <point x="697" y="244"/>
      <point x="612" y="244" type="curve"/>
      <point x="539" y="247"/>
      <point x="483" y="292"/>
      <point x="469" y="341" type="curve"/>
      <point x="529" y="373"/>
      <point x="557" y="442"/>
      <point x="557" y="504" type="curve" smooth="yes"/>
      <point x="557" y="552"/>
      <point x="541" y="590"/>
      <point x="519" y="611" type="curve"/>
    </contour>
  </outline>
</glyph>
<glyph name="dv_GhHa" format="1">
  <advance width="921"/>
  <outline>
    <contour>
      <point x="839" y="338" type="curve"/>
      <point x="785" y="357"/>
      <point x="732" y="362"/>
      <point x="680" y="362" type="curve" smooth="yes"/>
      <point x="660" y="362"/>
      <point x="645" y="359"/>
      <point x="617" y="359" type="curve" smooth="yes"/>
      <point x="575" y="359"/>
      <point x="545" y="383"/>
      <point x="545" y="415" type="curve" smooth="yes"/>
      <point x="545" y="448"/>
      <point x="576" y="472"/>
      <point x="618" y="472" type="curve" smooth="yes"/>
      <point x="828" y="472" type="line"/>
      <point x="828" y="611" type="line"/>
      <point x="933" y="611" type="line"/>
      <point x="918" y="680" type="line"/>
      <point x="-11" y="680" type="line"/>
      <point x="-5" y="657"/>
      <point x="-1" y="634"/>
      <point x="3" y="611" type="curve"/>
      <point x="113" y="611" type="line"/>
      <point x="96" y="590"/>
      <point x="84" y="561"/>
      <point x="84" y="535" type="curve" smooth="yes"/>
      <point x="84" y="477"/>
      <point x="114" y="424"/>
      <point x="161" y="404" type="curve"/>
      <point x="104" y="385"/>
      <point x="73" y="323"/>
      <point x="73" y="257" type="curve" smooth="yes"/>
      <point x="73" y="160"/>
      <point x="151" y="79"/>
      <point x="288" y="79" type="curve" smooth="yes"/>
      <point x="348" y="79"/>
      <point x="404" y="95"/>
      <point x="449" y="125" type="curve"/>
      <point x="467" y="34"/>
      <point x="556" y="-18"/>
      <point x="690" y="-18" type="curve" smooth="yes"/>
      <point x="745" y="-18"/>
      <point x="789" y="-12"/>
      <point x="839" y="2" type="curve"/>
      <point x="832" y="26"/>
      <point x="825" y="50"/>
      <point x="819" y="74" type="curve"/>
      <point x="778" y="62"/>
      <point x="739" y="56"/>
      <point x="697" y="56" type="curve" smooth="yes"/>
      <point x="606" y="56"/>
      <point x="534" y="94"/>
      <point x="534" y="166" type="curve" smooth="yes"/>
      <point x="534" y="239"/>
      <point x="590" y="290"/>
      <point x="684" y="290" type="curve" smooth="yes"/>
      <point x="730" y="290"/>
      <point x="775" y="281"/>
      <point x="819" y="266" type="curve"/>
      <point x="825" y="290"/>
      <point x="832" y="315"/>
    </contour>
    <contour>
      <point x="292" y="155" type="curve" smooth="yes"/>
      <point x="215" y="155"/>
      <point x="161" y="201"/>
      <point x="161" y="257" type="curve" smooth="yes"/>
      <point x="161" y="316"/>
      <point x="199" y="371"/>
      <point x="302" y="371" type="curve" smooth="yes"/>
      <point x="355" y="371" type="line"/>
      <point x="335" y="434" type="line"/>
      <point x="296" y="434" type="line" smooth="yes"/>
      <point x="209" y="434"/>
      <point x="171" y="475"/>
      <point x="171" y="534" type="curve" smooth="yes"/>
      <point x="171" y="566"/>
      <point x="187" y="598"/>
      <point x="223" y="611" type="curve"/>
      <point x="739" y="611" type="line"/>
      <point x="739" y="542" type="line"/>
      <point x="650" y="542" type="line" smooth="yes"/>
      <point x="544" y="542"/>
      <point x="461" y="511"/>
      <point x="461" y="415" type="curve" smooth="yes"/>
      <point x="461" y="375"/>
      <point x="482" y="342"/>
      <point x="523" y="318" type="curve"/>
      <point x="488" y="293"/>
      <point x="463" y="264"/>
      <point x="451" y="229" type="curve"/>
      <point x="412" y="177"/>
      <point x="358" y="155"/>
    </contour>
  </outline>
</glyph>
<glyph name="dv_HLa" format="1">
  <advance width="1281"/>
  <outline>
    <contour>
      <point x="1078" y="0" type="line"/>
      <point x="1165" y="-16" type="line"/>
      <point x="1165" y="611" type="line"/>
      <point x="1292" y="611" type="line"/>
      <point x="1277" y="680" type="line"/>
      <point x="-11" y="680" type="line"/>
      <point x="-5" y="657"/>
      <point x="-1" y="634"/>
      <point x="3" y="611" type="curve"/>
      <point x="361" y="611" type="line"/>
      <point x="361" y="542" type="line"/>
      <point x="235" y="542" type="line" smooth="yes"/>
      <point x="153" y="542"/>
      <point x="93" y="498"/>
      <point x="86" y="430" type="curve"/>
      <point x="84" y="426"/>
      <point x="82" y="421"/>
      <point x="82" y="415" type="curve" smooth="yes"/>
      <point x="82" y="375"/>
      <point x="104" y="342"/>
      <point x="144" y="318" type="curve"/>
      <point x="93" y="282"/>
      <point x="63" y="232"/>
      <point x="63" y="172" type="curve" smooth="yes"/>
      <point x="63" y="55"/>
      <point x="153" y="-18"/>
      <point x="312" y="-18" type="curve" smooth="yes"/>
      <point x="366" y="-18"/>
      <point x="410" y="-13"/>
      <point x="460" y="2" type="curve"/>
      <point x="454" y="26"/>
      <point x="446" y="50"/>
      <point x="440" y="74" type="curve"/>
      <point x="399" y="62"/>
      <point x="361" y="57"/>
      <point x="319" y="57" type="curve" smooth="yes"/>
      <point x="219" y="57"/>
      <point x="151" y="102"/>
      <point x="151" y="172" type="curve" smooth="yes"/>
      <point x="151" y="237"/>
      <point x="217" y="290"/>
      <point x="306" y="290" type="curve" smooth="yes"/>
      <point x="493" y="290" type="line"/>
      <point x="499" y="187"/>
      <point x="551" y="96"/>
      <point x="611" y="-19" type="curve"/>
      <point x="635" y="-11"/>
      <point x="658" y="-3"/>
      <point x="681" y="4" type="curve"/>
      <point x="616" y="137"/>
      <point x="577" y="204"/>
      <point x="574" y="297" type="curve"/>
      <point x="570" y="371"/>
      <point x="637" y="412"/>
      <point x="680" y="412" type="curve" smooth="yes"/>
      <point x="759" y="412"/>
      <point x="792" y="359"/>
      <point x="793" y="270" type="curve" smooth="yes"/>
      <point x="793" y="168" type="line"/>
      <point x="876" y="150" type="line"/>
      <point x="876" y="273" type="line" smooth="yes"/>
      <point x="876" y="355"/>
      <point x="911" y="413"/>
      <point x="976" y="413" type="curve" smooth="yes"/>
      <point x="1046" y="413"/>
      <point x="1078" y="356"/>
      <point x="1078" y="270" type="curve" smooth="yes"/>
    </contour>
    <contour>
      <point x="238" y="359" type="curve" smooth="yes"/>
      <point x="197" y="359"/>
      <point x="166" y="383"/>
      <point x="166" y="415" type="curve" smooth="yes"/>
      <point x="166" y="448"/>
      <point x="197" y="472"/>
      <point x="239" y="472" type="curve" smooth="yes"/>
      <point x="449" y="472" type="line"/>
      <point x="449" y="611" type="line"/>
      <point x="1078" y="611" type="line"/>
      <point x="1078" y="453" type="line"/>
      <point x="1052" y="473"/>
      <point x="1016" y="485"/>
      <point x="977" y="485" type="curve" smooth="yes"/>
      <point x="916" y="485"/>
      <point x="864" y="460"/>
      <point x="832" y="413" type="curve"/>
      <point x="799" y="458"/>
      <point x="744" y="485"/>
      <point x="680" y="485" type="curve" smooth="yes"/>
      <point x="584" y="485"/>
      <point x="523" y="429"/>
      <point x="499" y="362" type="curve"/>
      <point x="301" y="362" type="line" smooth="yes"/>
      <point x="281" y="362"/>
      <point x="266" y="359"/>
    </contour>
  </outline>
</glyph>
<glyph name="dv_HLa.MAR" format="1">
  <advance width="1246"/>
  <outline>
    <contour>
      <point x="977" y="411" type="curve" smooth="yes"/>
      <point x="1038" y="411"/>
      <point x="1084" y="361"/>
      <point x="1084" y="307" type="curve" smooth="yes"/>
      <point x="1084" y="212"/>
      <point x="1045" y="146"/>
      <point x="976" y="4" type="curve"/>
      <point x="1000" y="-3"/>
      <point x="1022" y="-11"/>
      <point x="1046" y="-19" type="curve"/>
      <point x="1112" y="108"/>
      <point x="1165" y="202"/>
      <point x="1165" y="314" type="curve" smooth="yes"/>
      <point x="1165" y="390"/>
      <point x="1104" y="460"/>
      <point x="1021" y="479" type="curve"/>
      <point x="1021" y="611" type="line"/>
      <point x="1257" y="611" type="line"/>
      <point x="1241" y="680" type="line"/>
      <point x="-11" y="680" type="line"/>
      <point x="-5" y="657"/>
      <point x="-1" y="634"/>
      <point x="3" y="611" type="curve"/>
      <point x="361" y="611" type="line"/>
      <point x="361" y="542" type="line"/>
      <point x="235" y="542" type="line" smooth="yes"/>
      <point x="148" y="542"/>
      <point x="82" y="493"/>
      <point x="82" y="415" type="curve" smooth="yes"/>
      <point x="82" y="375"/>
      <point x="104" y="342"/>
      <point x="144" y="318" type="curve"/>
      <point x="93" y="282"/>
      <point x="63" y="232"/>
      <point x="63" y="172" type="curve" smooth="yes"/>
      <point x="63" y="55"/>
      <point x="153" y="-18"/>
      <point x="312" y="-18" type="curve" smooth="yes"/>
      <point x="367" y="-18"/>
      <point x="412" y="-11"/>
      <point x="460" y="2" type="curve"/>
      <point x="454" y="26"/>
      <point x="446" y="50"/>
      <point x="440" y="74" type="curve"/>
      <point x="399" y="62"/>
      <point x="361" y="57"/>
      <point x="318" y="57" type="curve" smooth="yes"/>
      <point x="216" y="57"/>
      <point x="151" y="101"/>
      <point x="151" y="172" type="curve" smooth="yes"/>
      <point x="151" y="244"/>
      <point x="222" y="290"/>
      <point x="318" y="290" type="curve" smooth="yes"/>
      <point x="493" y="290" type="line"/>
      <point x="499" y="187"/>
      <point x="551" y="96"/>
      <point x="611" y="-19" type="curve"/>
      <point x="635" y="-11"/>
      <point x="658" y="-3"/>
      <point x="681" y="4" type="curve"/>
      <point x="611" y="146"/>
      <point x="573" y="212"/>
      <point x="573" y="307" type="curve" smooth="yes"/>
      <point x="573" y="361"/>
      <point x="619" y="411"/>
      <point x="680" y="411" type="curve" smooth="yes"/>
      <point x="799" y="411"/>
      <point x="793" y="299"/>
      <point x="793" y="168" type="curve"/>
      <point x="875" y="150" type="line"/>
      <point x="875" y="273" type="line" smooth="yes"/>
      <point x="875" y="355"/>
      <point x="911" y="411"/>
    </contour>
    <contour>
      <point x="238" y="359" type="curve" smooth="yes"/>
      <point x="199" y="359"/>
      <point x="166" y="383"/>
      <point x="166" y="415" type="curve" smooth="yes"/>
      <point x="166" y="448"/>
      <point x="199" y="472"/>
      <point x="239" y="472" type="curve" smooth="yes"/>
      <point x="449" y="472" type="line"/>
      <point x="449" y="611" type="line"/>
      <point x="935" y="611" type="line"/>
      <point x="935" y="481" type="line"/>
      <point x="891" y="472"/>
      <point x="856" y="449"/>
      <point x="832" y="413" type="curve"/>
      <point x="801" y="454"/>
      <point x="745" y="483"/>
      <point x="687" y="483" type="curve" smooth="yes"/>
      <point x="599" y="483"/>
      <point x="525" y="433"/>
      <point x="499" y="362" type="curve"/>
      <point x="301" y="362" type="line" smooth="yes"/>
      <point x="281" y="362"/>
      <point x="266" y="359"/>
    </contour>
  </outline>
</glyph>
<glyph name="dv_HMYa" format="1">
  <advance width="1464"/>
  <outline>
    <contour>
      <point x="549" y="290" type="line"/>
      <point x="551" y="226"/>
      <point x="610" y="171"/>
      <point x="667" y="171" type="curve" smooth="yes"/>
      <point x="688" y="171"/>
      <point x="702" y="196"/>
      <point x="702" y="255" type="curve"/>
      <point x="938" y="255" type="line"/>
      <point x="978" y="205"/>
      <point x="1045" y="171"/>
      <point x="1119" y="171" type="curve" smooth="yes"/>
      <point x="1182" y="171"/>
      <point x="1228" y="189"/>
      <point x="1262" y="217" type="curve"/>
      <point x="1262" y="0" type="line"/>
      <point x="1348" y="-16" type="line"/>
      <point x="1348" y="611" type="line"/>
      <point x="1475" y="611" type="line"/>
      <point x="1460" y="680" type="line"/>
      <point x="-11" y="680" type="line"/>
      <point x="-5" y="657"/>
      <point x="-1" y="634"/>
      <point x="3" y="611" type="curve"/>
      <point x="361" y="611" type="line"/>
      <point x="361" y="542" type="line"/>
      <point x="235" y="542" type="line" smooth="yes"/>
      <point x="148" y="542"/>
      <point x="82" y="493"/>
      <point x="82" y="415" type="curve" smooth="yes"/>
      <point x="82" y="375"/>
      <point x="104" y="342"/>
      <point x="144" y="318" type="curve"/>
      <point x="93" y="282"/>
      <point x="63" y="232"/>
      <point x="63" y="172" type="curve" smooth="yes"/>
      <point x="63" y="54"/>
      <point x="156" y="-18"/>
      <point x="312" y="-18" type="curve" smooth="yes"/>
      <point x="367" y="-18"/>
      <point x="412" y="-11"/>
      <point x="460" y="2" type="curve"/>
      <point x="454" y="26"/>
      <point x="446" y="50"/>
      <point x="440" y="74" type="curve"/>
      <point x="400" y="61"/>
      <point x="353" y="56"/>
      <point x="308" y="56" type="curve" smooth="yes"/>
      <point x="214" y="56"/>
      <point x="151" y="103"/>
      <point x="151" y="172" type="curve" smooth="yes"/>
      <point x="151" y="241"/>
      <point x="215" y="290"/>
      <point x="306" y="290" type="curve" smooth="yes"/>
    </contour>
    <contour>
      <point x="1262" y="611" type="line"/>
      <point x="1262" y="379" type="line"/>
      <point x="1259" y="294"/>
      <point x="1205" y="244"/>
      <point x="1121" y="244" type="curve"/>
      <point x="1047" y="247"/>
      <point x="992" y="292"/>
      <point x="977" y="341" type="curve"/>
      <point x="1038" y="374"/>
      <point x="1066" y="442"/>
      <point x="1066" y="504" type="curve" smooth="yes"/>
      <point x="1066" y="552"/>
      <point x="1049" y="590"/>
      <point x="1028" y="611" type="curve"/>
    </contour>
    <contour>
      <point x="986" y="510" type="curve" smooth="yes"/>
      <point x="986" y="441"/>
      <point x="949" y="391"/>
      <point x="910" y="379" type="curve"/>
      <point x="904" y="373"/>
      <point x="900" y="368"/>
      <point x="895" y="362" type="curve"/>
      <point x="895" y="348"/>
      <point x="897" y="335"/>
      <point x="900" y="322" type="curve"/>
      <point x="702" y="322" type="line"/>
      <point x="702" y="611" type="line"/>
      <point x="914" y="611" type="line"/>
      <point x="958" y="597"/>
      <point x="986" y="560"/>
    </contour>
    <contour>
      <point x="617" y="362" type="line"/>
      <point x="301" y="362" type="line" smooth="yes"/>
      <point x="281" y="362"/>
      <point x="266" y="359"/>
      <point x="238" y="359" type="curve" smooth="yes"/>
      <point x="197" y="359"/>
      <point x="166" y="383"/>
      <point x="166" y="415" type="curve" smooth="yes"/>
      <point x="166" y="448"/>
      <point x="197" y="472"/>
      <point x="239" y="472" type="curve" smooth="yes"/>
      <point x="449" y="472" type="line"/>
      <point x="449" y="611" type="line"/>
      <point x="617" y="611" type="line"/>
    </contour>
  </outline>
</glyph>
<glyph name="dv_HM.half" format="1">
  <advance width="639"/>
  <outline>
    <contour>
      <point x="765" y="310" type="line"/>
      <point x="765" y="376" type="line"/>
      <point x="443" y="376" type="line" smooth="yes"/>
      <point x="421" y="376"/>
      <point x="403" y="362"/>
      <point x="397" y="355" type="curve"/>
      <point x="365" y="360"/>
      <point x="332" y="362"/>
      <point x="301" y="362" type="curve" smooth="yes"/>
      <point x="281" y="362"/>
      <point x="266" y="359"/>
      <point x="238" y="359" type="curve" smooth="yes"/>
      <point x="197" y="359"/>
      <point x="166" y="383"/>
      <point x="166" y="415" type="curve" smooth="yes"/>
      <point x="166" y="448"/>
      <point x="197" y="472"/>
      <point x="239" y="472" type="curve" smooth="yes"/>
      <point x="449" y="472" type="line"/>
      <point x="449" y="611" type="line"/>
      <point x="651" y="611" type="line"/>
      <point x="646" y="634"/>
      <point x="642" y="657"/>
      <point x="636" y="680" type="curve"/>
      <point x="-11" y="680" type="line"/>
      <point x="-5" y="657"/>
      <point x="-1" y="634"/>
      <point x="3" y="611" type="curve"/>
      <point x="361" y="611" type="line"/>
      <point x="361" y="542" type="line"/>
      <point x="235" y="542" type="line" smooth="yes"/>
      <point x="149" y="542"/>
      <point x="82" y="492"/>
      <point x="82" y="415" type="curve" smooth="yes"/>
      <point x="82" y="375"/>
      <point x="104" y="342"/>
      <point x="144" y="318" type="curve"/>
      <point x="93" y="282"/>
      <point x="63" y="232"/>
      <point x="63" y="172" type="curve" smooth="yes"/>
      <point x="63" y="54"/>
      <point x="156" y="-18"/>
      <point x="312" y="-18" type="curve" smooth="yes"/>
      <point x="367" y="-18"/>
      <point x="412" y="-11"/>
      <point x="460" y="2" type="curve"/>
      <point x="454" y="26"/>
      <point x="446" y="50"/>
      <point x="440" y="74" type="curve"/>
      <point x="400" y="61"/>
      <point x="353" y="56"/>
      <point x="308" y="56" type="curve" smooth="yes"/>
      <point x="214" y="56"/>
      <point x="151" y="103"/>
      <point x="151" y="172" type="curve" smooth="yes"/>
      <point x="151" y="241"/>
      <point x="215" y="290"/>
      <point x="306" y="290" type="curve" smooth="yes"/>
      <point x="340" y="290"/>
      <point x="376" y="284"/>
      <point x="410" y="275" type="curve"/>
      <point x="432" y="246"/>
      <point x="468" y="225"/>
      <point x="502" y="225" type="curve" smooth="yes"/>
      <point x="534" y="225"/>
      <point x="539" y="264"/>
      <point x="539" y="310" type="curve"/>
    </contour>
  </outline>
</glyph>
<glyph name="dv_HMa" format="1">
  <advance width="965"/>
  <outline>
    <contour>
      <point x="762" y="312" type="line"/>
      <point x="762" y="0" type="line"/>
      <point x="849" y="-16" type="line"/>
      <point x="849" y="611" type="line"/>
      <point x="977" y="611" type="line"/>
      <point x="962" y="680" type="line"/>
      <point x="-11" y="680" type="line"/>
      <point x="-5" y="657"/>
      <point x="-1" y="634"/>
      <point x="3" y="611" type="curve"/>
      <point x="361" y="611" type="line"/>
      <point x="361" y="542" type="line"/>
      <point x="235" y="542" type="line" smooth="yes"/>
      <point x="148" y="542"/>
      <point x="82" y="493"/>
      <point x="82" y="415" type="curve" smooth="yes"/>
      <point x="82" y="375"/>
      <point x="104" y="342"/>
      <point x="144" y="318" type="curve"/>
      <point x="93" y="282"/>
      <point x="63" y="232"/>
      <point x="63" y="172" type="curve" smooth="yes"/>
      <point x="63" y="55"/>
      <point x="153" y="-18"/>
      <point x="312" y="-18" type="curve" smooth="yes"/>
      <point x="366" y="-18"/>
      <point x="410" y="-13"/>
      <point x="460" y="2" type="curve"/>
      <point x="454" y="26"/>
      <point x="446" y="50"/>
      <point x="440" y="74" type="curve"/>
      <point x="399" y="62"/>
      <point x="361" y="57"/>
      <point x="318" y="57" type="curve" smooth="yes"/>
      <point x="216" y="57"/>
      <point x="151" y="101"/>
      <point x="151" y="172" type="curve" smooth="yes"/>
      <point x="151" y="241"/>
      <point x="215" y="290"/>
      <point x="306" y="290" type="curve" smooth="yes"/>
      <point x="366" y="290"/>
      <point x="377" y="284"/>
      <point x="412" y="274" type="curve"/>
      <point x="434" y="247"/>
      <point x="469" y="227"/>
      <point x="502" y="227" type="curve" smooth="yes"/>
      <point x="526" y="227"/>
      <point x="539" y="246"/>
      <point x="540" y="312" type="curve"/>
    </contour>
    <contour>
      <point x="301" y="362" type="curve" smooth="yes"/>
      <point x="283" y="362"/>
      <point x="270" y="359"/>
      <point x="243" y="359" type="curve" smooth="yes"/>
      <point x="202" y="359"/>
      <point x="166" y="381"/>
      <point x="166" y="415" type="curve" smooth="yes"/>
      <point x="166" y="448"/>
      <point x="199" y="472"/>
      <point x="239" y="472" type="curve" smooth="yes"/>
      <point x="449" y="472" type="line"/>
      <point x="449" y="611" type="line"/>
      <point x="762" y="611" type="line"/>
      <point x="762" y="378" type="line"/>
      <point x="443" y="378" type="line" smooth="yes"/>
      <point x="418" y="378"/>
      <point x="405" y="364"/>
      <point x="394" y="355" type="curve"/>
      <point x="362" y="360"/>
      <point x="331" y="362"/>
    </contour>
  </outline>
</glyph>
<glyph name="dv_HMatraU" format="1">
  <advance width="543"/>
  <outline>
    <contour>
      <point x="460" y="338" type="curve"/>
      <point x="406" y="357"/>
      <point x="353" y="362"/>
      <point x="301" y="362" type="curve" smooth="yes"/>
      <point x="281" y="362"/>
      <point x="266" y="359"/>
      <point x="238" y="359" type="curve" smooth="yes"/>
      <point x="199" y="359"/>
      <point x="166" y="383"/>
      <point x="166" y="415" type="curve" smooth="yes"/>
      <point x="166" y="448"/>
      <point x="199" y="472"/>
      <point x="239" y="472" type="curve" smooth="yes"/>
      <point x="449" y="472" type="line"/>
      <point x="449" y="611" type="line"/>
      <point x="554" y="611" type="line"/>
      <point x="539" y="680" type="line"/>
      <point x="-11" y="680" type="line"/>
      <point x="-5" y="657"/>
      <point x="-1" y="634"/>
      <point x="3" y="611" type="curve"/>
      <point x="361" y="611" type="line"/>
      <point x="361" y="542" type="line"/>
      <point x="235" y="542" type="line" smooth="yes"/>
      <point x="145" y="542"/>
      <point x="84" y="490"/>
      <point x="84" y="413" type="curve" smooth="yes"/>
      <point x="84" y="376"/>
      <point x="104" y="342"/>
      <point x="144" y="318" type="curve"/>
      <point x="93" y="282"/>
      <point x="63" y="232"/>
      <point x="63" y="172" type="curve" smooth="yes"/>
      <point x="63" y="54"/>
      <point x="154" y="-18"/>
      <point x="311" y="-18" type="curve"/>
      <point x="352" y="-26"/>
      <point x="367" y="-56"/>
      <point x="367" y="-97" type="curve" smooth="yes"/>
      <point x="367" y="-133"/>
      <point x="336" y="-169"/>
      <point x="287" y="-169" type="curve" smooth="yes"/>
      <point x="210" y="-169"/>
      <point x="161" y="-117"/>
      <point x="89" y="-34" type="curve"/>
      <point x="38" y="-69" type="line"/>
      <point x="105" y="-173"/>
      <point x="191" y="-236"/>
      <point x="285" y="-236" type="curve" smooth="yes"/>
      <point x="372" y="-236"/>
      <point x="446" y="-182"/>
      <point x="446" y="-93" type="curve" smooth="yes"/>
      <point x="446" y="-59"/>
      <point x="434" y="-30"/>
      <point x="415" y="-8" type="curve"/>
      <point x="430" y="-6"/>
      <point x="445" y="-2"/>
      <point x="460" y="2" type="curve"/>
      <point x="454" y="26"/>
      <point x="446" y="50"/>
      <point x="440" y="74" type="curve"/>
      <point x="400" y="61"/>
      <point x="353" y="56"/>
      <point x="308" y="56" type="curve" smooth="yes"/>
      <point x="217" y="56"/>
      <point x="159" y="101"/>
      <point x="159" y="163" type="curve" smooth="yes"/>
      <point x="159" y="231"/>
      <point x="208" y="290"/>
      <point x="306" y="290" type="curve" smooth="yes"/>
      <point x="351" y="290"/>
      <point x="396" y="281"/>
      <point x="440" y="266" type="curve"/>
      <point x="446" y="290"/>
      <point x="454" y="315"/>
    </contour>
  </outline>
</glyph>
<glyph name="dv_HMatraUu" format="1">
  <advance width="543"/>
  <outline>
    <contour>
      <point x="460" y="338" type="curve"/>
      <point x="406" y="357"/>
      <point x="353" y="362"/>
      <point x="301" y="362" type="curve" smooth="yes"/>
      <point x="281" y="362"/>
      <point x="266" y="359"/>
      <point x="238" y="359" type="curve" smooth="yes"/>
      <point x="199" y="359"/>
      <point x="166" y="383"/>
      <point x="166" y="415" type="curve" smooth="yes"/>
      <point x="166" y="448"/>
      <point x="199" y="472"/>
      <point x="239" y="472" type="curve" smooth="yes"/>
      <point x="449" y="472" type="line"/>
      <point x="449" y="611" type="line"/>
      <point x="554" y="611" type="line"/>
      <point x="539" y="680" type="line"/>
      <point x="-11" y="680" type="line"/>
      <point x="-5" y="657"/>
      <point x="-1" y="634"/>
      <point x="3" y="611" type="curve"/>
      <point x="361" y="611" type="line"/>
      <point x="361" y="542" type="line"/>
      <point x="235" y="542" type="line" smooth="yes"/>
      <point x="148" y="542"/>
      <point x="82" y="493"/>
      <point x="82" y="415" type="curve" smooth="yes"/>
      <point x="82" y="375"/>
      <point x="104" y="342"/>
      <point x="144" y="318" type="curve"/>
      <point x="93" y="282"/>
      <point x="63" y="232"/>
      <point x="63" y="172" type="curve" smooth="yes"/>
      <point x="63" y="100"/>
      <point x="96" y="46"/>
      <point x="157" y="14" type="curve"/>
      <point x="124" y="-8"/>
      <point x="104" y="-46"/>
      <point x="104" y="-94" type="curve" smooth="yes"/>
      <point x="104" y="-185"/>
      <point x="178" y="-238"/>
      <point x="252" y="-238" type="curve" smooth="yes"/>
      <point x="317" y="-238" type="line"/>
      <point x="317" y="-171" type="line"/>
      <point x="262" y="-171" type="line" smooth="yes"/>
      <point x="210" y="-171"/>
      <point x="177" y="-139"/>
      <point x="177" y="-94" type="curve" smooth="yes"/>
      <point x="177" y="-50"/>
      <point x="209" y="-17"/>
      <point x="262" y="-17" type="curve" smooth="yes"/>
      <point x="339" y="-17"/>
      <point x="388" y="-70"/>
      <point x="459" y="-153" type="curve"/>
      <point x="476" y="-141"/>
      <point x="494" y="-129"/>
      <point x="510" y="-117" type="curve"/>
      <point x="482" y="-73"/>
      <point x="447" y="-36"/>
      <point x="410" y="-9" type="curve"/>
      <point x="427" y="-6"/>
      <point x="444" y="-2"/>
      <point x="460" y="2" type="curve"/>
      <point x="454" y="26"/>
      <point x="446" y="50"/>
      <point x="440" y="74" type="curve"/>
      <point x="400" y="61"/>
      <point x="353" y="56"/>
      <point x="308" y="56" type="curve" smooth="yes"/>
      <point x="217" y="56"/>
      <point x="159" y="101"/>
      <point x="159" y="163" type="curve" smooth="yes"/>
      <point x="159" y="231"/>
      <point x="208" y="290"/>
      <point x="306" y="290" type="curve" smooth="yes"/>
      <point x="351" y="290"/>
      <point x="396" y="281"/>
      <point x="440" y="266" type="curve"/>
      <point x="446" y="290"/>
      <point x="454" y="315"/>
    </contour>
  </outline>
</glyph>
<glyph name="dv_HMatraVocalicR" format="1">
  <advance width="543"/>
  <outline>
    <contour>
      <point x="460" y="338" type="curve"/>
      <point x="406" y="357"/>
      <point x="353" y="362"/>
      <point x="301" y="362" type="curve" smooth="yes"/>
      <point x="281" y="362"/>
      <point x="266" y="359"/>
      <point x="238" y="359" type="curve" smooth="yes"/>
      <point x="199" y="359"/>
      <point x="166" y="383"/>
      <point x="166" y="415" type="curve" smooth="yes"/>
      <point x="166" y="448"/>
      <point x="199" y="472"/>
      <point x="239" y="472" type="curve" smooth="yes"/>
      <point x="449" y="472" type="line"/>
      <point x="449" y="611" type="line"/>
      <point x="554" y="611" type="line"/>
      <point x="539" y="680" type="line"/>
      <point x="-11" y="680" type="line"/>
      <point x="-5" y="657"/>
      <point x="-1" y="634"/>
      <point x="3" y="611" type="curve"/>
      <point x="361" y="611" type="line"/>
      <point x="361" y="542" type="line"/>
      <point x="235" y="542" type="line" smooth="yes"/>
      <point x="148" y="542"/>
      <point x="82" y="493"/>
      <point x="82" y="415" type="curve" smooth="yes"/>
      <point x="82" y="375"/>
      <point x="104" y="342"/>
      <point x="144" y="318" type="curve"/>
      <point x="93" y="282"/>
      <point x="63" y="232"/>
      <point x="63" y="172" type="curve" smooth="yes"/>
      <point x="63" y="86"/>
      <point x="115" y="16"/>
      <point x="205" y="-4" type="curve"/>
      <point x="184" y="-26"/>
      <point x="172" y="-61"/>
      <point x="172" y="-94" type="curve" smooth="yes"/>
      <point x="172" y="-184"/>
      <point x="243" y="-238"/>
      <point x="320" y="-238" type="curve" smooth="yes"/>
      <point x="349" y="-238"/>
      <point x="377" y="-234"/>
      <point x="405" y="-225" type="curve"/>
      <point x="401" y="-203"/>
      <point x="396" y="-182"/>
      <point x="391" y="-160" type="curve"/>
      <point x="367" y="-168"/>
      <point x="350" y="-172"/>
      <point x="330" y="-172" type="curve" smooth="yes"/>
      <point x="284" y="-172"/>
      <point x="251" y="-145"/>
      <point x="251" y="-102" type="curve" smooth="yes"/>
      <point x="251" y="-16"/>
      <point x="328" y="-25"/>
      <point x="410" y="-10" type="curve" smooth="yes"/>
      <point x="427" y="-7"/>
      <point x="442" y="-2"/>
      <point x="460" y="2" type="curve"/>
      <point x="454" y="26"/>
      <point x="446" y="50"/>
      <point x="440" y="74" type="curve"/>
      <point x="400" y="61"/>
      <point x="353" y="56"/>
      <point x="308" y="56" type="curve" smooth="yes"/>
      <point x="217" y="56"/>
      <point x="159" y="101"/>
      <point x="159" y="163" type="curve" smooth="yes"/>
      <point x="159" y="231"/>
      <point x="208" y="290"/>
      <point x="306" y="290" type="curve" smooth="yes"/>
      <point x="351" y="290"/>
      <point x="396" y="281"/>
      <point x="440" y="266" type="curve"/>
      <point x="446" y="290"/>
      <point x="454" y="315"/>
    </contour>
  </outline>
</glyph>
<glyph name="dv_HNa" format="1">
  <advance width="800"/>
  <outline>
    <contour>
      <point x="596" y="0" type="line"/>
      <point x="683" y="-16" type="line"/>
      <point x="683" y="611" type="line"/>
      <point x="811" y="611" type="line"/>
      <point x="806" y="634"/>
      <point x="800" y="657"/>
      <point x="794" y="680" type="curve"/>
      <point x="-11" y="680" type="line"/>
      <point x="-5" y="657"/>
      <point x="-1" y="634"/>
      <point x="3" y="611" type="curve"/>
      <point x="361" y="611" type="line"/>
      <point x="361" y="542" type="line"/>
      <point x="235" y="542" type="line" smooth="yes"/>
      <point x="148" y="542"/>
      <point x="82" y="493"/>
      <point x="82" y="415" type="curve" smooth="yes"/>
      <point x="82" y="375"/>
      <point x="104" y="342"/>
      <point x="144" y="318" type="curve"/>
      <point x="93" y="282"/>
      <point x="63" y="232"/>
      <point x="63" y="172" type="curve" smooth="yes"/>
      <point x="63" y="54"/>
      <point x="156" y="-18"/>
      <point x="312" y="-18" type="curve" smooth="yes"/>
      <point x="321" y="-18"/>
      <point x="330" y="-18"/>
      <point x="340" y="-17" type="curve"/>
      <point x="340" y="-20" type="line" smooth="yes"/>
      <point x="340" y="-56"/>
      <point x="381" y="-74"/>
      <point x="417" y="-74" type="curve" smooth="yes"/>
      <point x="472" y="-74"/>
      <point x="513" y="-55"/>
      <point x="513" y="-24" type="curve" smooth="yes"/>
      <point x="513" y="-6"/>
      <point x="503" y="21"/>
      <point x="470" y="49" type="curve"/>
      <point x="596" y="214" type="line"/>
    </contour>
    <contour>
      <point x="308" y="56" type="curve" smooth="yes"/>
      <point x="214" y="56"/>
      <point x="151" y="103"/>
      <point x="151" y="172" type="curve" smooth="yes"/>
      <point x="151" y="241"/>
      <point x="215" y="290"/>
      <point x="306" y="290" type="curve" smooth="yes"/>
      <point x="565" y="290" type="line"/>
      <point x="392" y="63" type="line"/>
      <point x="365" y="58"/>
      <point x="335" y="56"/>
    </contour>
    <contour>
      <point x="250" y="360" type="curve" smooth="yes"/>
      <point x="207" y="360"/>
      <point x="166" y="384"/>
      <point x="166" y="415" type="curve" smooth="yes"/>
      <point x="166" y="448"/>
      <point x="199" y="472"/>
      <point x="239" y="472" type="curve" smooth="yes"/>
      <point x="449" y="472" type="line"/>
      <point x="449" y="611" type="line"/>
      <point x="596" y="611" type="line"/>
      <point x="596" y="362" type="line"/>
      <point x="312" y="362" type="line" smooth="yes"/>
      <point x="293" y="362"/>
      <point x="278" y="360"/>
    </contour>
  </outline>
</glyph>
<glyph name="dv_HVa" format="1">
  <advance width="1038"/>
  <outline>
    <contour>
      <point x="835" y="0" type="line"/>
      <point x="921" y="-16" type="line"/>
      <point x="921" y="611" type="line"/>
      <point x="1049" y="611" type="line"/>
      <point x="1033" y="680" type="line"/>
      <point x="-11" y="680" type="line"/>
      <point x="-5" y="657"/>
      <point x="-1" y="634"/>
      <point x="3" y="611" type="curve"/>
      <point x="361" y="611" type="line"/>
      <point x="361" y="542" type="line"/>
      <point x="235" y="542" type="line" smooth="yes"/>
      <point x="148" y="542"/>
      <point x="82" y="493"/>
      <point x="82" y="415" type="curve" smooth="yes"/>
      <point x="82" y="375"/>
      <point x="104" y="342"/>
      <point x="144" y="318" type="curve"/>
      <point x="93" y="282"/>
      <point x="63" y="232"/>
      <point x="63" y="172" type="curve" smooth="yes"/>
      <point x="63" y="54"/>
      <point x="156" y="-18"/>
      <point x="312" y="-18" type="curve" smooth="yes"/>
      <point x="366" y="-18"/>
      <point x="410" y="-13"/>
      <point x="460" y="2" type="curve"/>
      <point x="454" y="26"/>
      <point x="446" y="50"/>
      <point x="440" y="74" type="curve"/>
      <point x="399" y="62"/>
      <point x="361" y="57"/>
      <point x="319" y="57" type="curve" smooth="yes"/>
      <point x="219" y="57"/>
      <point x="151" y="102"/>
      <point x="151" y="172" type="curve" smooth="yes"/>
      <point x="151" y="243"/>
      <point x="222" y="290"/>
      <point x="320" y="290" type="curve" smooth="yes"/>
      <point x="473" y="290" type="line"/>
      <point x="477" y="168"/>
      <point x="573" y="91"/>
      <point x="697" y="91" type="curve" smooth="yes"/>
      <point x="756" y="91"/>
      <point x="806" y="119"/>
      <point x="835" y="147" type="curve"/>
    </contour>
    <contour>
      <point x="238" y="359" type="curve" smooth="yes"/>
      <point x="199" y="359"/>
      <point x="166" y="383"/>
      <point x="166" y="415" type="curve" smooth="yes"/>
      <point x="166" y="448"/>
      <point x="199" y="472"/>
      <point x="239" y="472" type="curve" smooth="yes"/>
      <point x="449" y="472" type="line"/>
      <point x="449" y="611" type="line"/>
      <point x="835" y="611" type="line"/>
      <point x="835" y="450" type="line"/>
      <point x="806" y="479"/>
      <point x="756" y="506"/>
      <point x="697" y="506" type="curve" smooth="yes"/>
      <point x="587" y="506"/>
      <point x="508" y="447"/>
      <point x="482" y="362" type="curve"/>
      <point x="301" y="362" type="line" smooth="yes"/>
      <point x="272" y="362"/>
      <point x="255" y="359"/>
    </contour>
    <contour>
      <point x="563" y="298" type="curve" smooth="yes"/>
      <point x="564" y="379"/>
      <point x="625" y="434"/>
      <point x="696" y="434" type="curve" smooth="yes"/>
      <point x="771" y="434"/>
      <point x="810" y="387"/>
      <point x="835" y="351" type="curve"/>
      <point x="835" y="245" type="line"/>
      <point x="810" y="210"/>
      <point x="771" y="162"/>
      <point x="696" y="162" type="curve" smooth="yes"/>
      <point x="621" y="162"/>
      <point x="563" y="218"/>
    </contour>
  </outline>
</glyph>
<glyph name="dv_HYa" format="1">
  <advance width="1077"/>
  <outline>
    <contour>
      <point x="460" y="338" type="curve"/>
      <point x="406" y="357"/>
      <point x="353" y="362"/>
      <point x="301" y="362" type="curve" smooth="yes"/>
      <point x="281" y="362"/>
      <point x="266" y="359"/>
      <point x="238" y="359" type="curve" smooth="yes"/>
      <point x="197" y="359"/>
      <point x="166" y="383"/>
      <point x="166" y="415" type="curve" smooth="yes"/>
      <point x="166" y="448"/>
      <point x="197" y="472"/>
      <point x="239" y="472" type="curve" smooth="yes"/>
      <point x="535" y="472" type="line" smooth="yes"/>
      <point x="581" y="472"/>
      <point x="600" y="455"/>
      <point x="600" y="436" type="curve" smooth="yes"/>
      <point x="600" y="406"/>
      <point x="563" y="391"/>
      <point x="524" y="380" type="curve"/>
      <point x="509" y="361" type="line"/>
      <point x="509" y="262"/>
      <point x="613" y="171"/>
      <point x="733" y="171" type="curve" smooth="yes"/>
      <point x="796" y="171"/>
      <point x="842" y="189"/>
      <point x="875" y="217" type="curve"/>
      <point x="875" y="0" type="line"/>
      <point x="961" y="-16" type="line"/>
      <point x="961" y="611" type="line"/>
      <point x="1089" y="611" type="line"/>
      <point x="1084" y="634"/>
      <point x="1080" y="657"/>
      <point x="1074" y="680" type="curve"/>
      <point x="-11" y="680" type="line"/>
      <point x="-5" y="657"/>
      <point x="-1" y="634"/>
      <point x="3" y="611" type="curve"/>
      <point x="361" y="611" type="line"/>
      <point x="361" y="542" type="line"/>
      <point x="235" y="542" type="line" smooth="yes"/>
      <point x="148" y="542"/>
      <point x="82" y="493"/>
      <point x="82" y="415" type="curve" smooth="yes"/>
      <point x="82" y="375"/>
      <point x="104" y="342"/>
      <point x="144" y="318" type="curve"/>
      <point x="93" y="282"/>
      <point x="63" y="232"/>
      <point x="63" y="172" type="curve" smooth="yes"/>
      <point x="63" y="54"/>
      <point x="156" y="-18"/>
      <point x="312" y="-18" type="curve" smooth="yes"/>
      <point x="367" y="-18"/>
      <point x="412" y="-11"/>
      <point x="460" y="2" type="curve"/>
      <point x="454" y="26"/>
      <point x="446" y="50"/>
      <point x="440" y="74" type="curve"/>
      <point x="399" y="62"/>
      <point x="361" y="57"/>
      <point x="318" y="57" type="curve" smooth="yes"/>
      <point x="216" y="57"/>
      <point x="151" y="101"/>
      <point x="151" y="172" type="curve" smooth="yes"/>
      <point x="151" y="244"/>
      <point x="221" y="289"/>
      <point x="318" y="289" type="curve"/>
      <point x="359" y="287"/>
      <point x="400" y="280"/>
      <point x="440" y="266" type="curve"/>
      <point x="446" y="290"/>
      <point x="454" y="315"/>
    </contour>
    <contour>
      <point x="875" y="611" type="line"/>
      <point x="875" y="379" type="line"/>
      <point x="873" y="294"/>
      <point x="820" y="243"/>
      <point x="734" y="243" type="curve"/>
      <point x="662" y="247"/>
      <point x="607" y="291"/>
      <point x="591" y="341" type="curve"/>
      <point x="649" y="371"/>
      <point x="675" y="393"/>
      <point x="675" y="448" type="curve" smooth="yes"/>
      <point x="675" y="492"/>
      <point x="635" y="539"/>
      <point x="557" y="539" type="curve" smooth="yes"/>
      <point x="449" y="539" type="line"/>
      <point x="449" y="611" type="line"/>
    </contour>
  </outline>
</glyph>
<glyph name="dv_JhHa" format="1">
  <advance width="1083"/>
  <outline>
    <contour>
      <point x="1000" y="338" type="curve"/>
      <point x="946" y="357"/>
      <point x="893" y="362"/>
      <point x="841" y="362" type="curve" smooth="yes"/>
      <point x="821" y="362"/>
      <point x="806" y="359"/>
      <point x="778" y="359" type="curve" smooth="yes"/>
      <point x="739" y="359"/>
      <point x="706" y="383"/>
      <point x="706" y="415" type="curve" smooth="yes"/>
      <point x="706" y="448"/>
      <point x="739" y="472"/>
      <point x="779" y="472" type="curve" smooth="yes"/>
      <point x="989" y="472" type="line"/>
      <point x="989" y="611" type="line"/>
      <point x="1094" y="611" type="line"/>
      <point x="1079" y="680" type="line"/>
      <point x="-11" y="680" type="line"/>
      <point x="-5" y="657"/>
      <point x="-1" y="634"/>
      <point x="3" y="611" type="curve"/>
      <point x="353" y="611" type="line"/>
      <point x="353" y="517" type="line"/>
      <point x="209" y="517" type="line" smooth="yes"/>
      <point x="120" y="517"/>
      <point x="51" y="466"/>
      <point x="51" y="380" type="curve" smooth="yes"/>
      <point x="51" y="300"/>
      <point x="131" y="243"/>
      <point x="211" y="243" type="curve" smooth="yes"/>
      <point x="305" y="243" type="line" smooth="yes"/>
      <point x="368" y="243"/>
      <point x="408" y="203"/>
      <point x="408" y="148" type="curve" smooth="yes"/>
      <point x="408" y="95"/>
      <point x="364" y="52"/>
      <point x="275" y="52" type="curve" smooth="yes"/>
      <point x="248" y="52"/>
      <point x="221" y="57"/>
      <point x="195" y="63" type="curve"/>
      <point x="181" y="106"/>
      <point x="141" y="141"/>
      <point x="93" y="141" type="curve" smooth="yes"/>
      <point x="67" y="141"/>
      <point x="49" y="126"/>
      <point x="49" y="102" type="curve" smooth="yes"/>
      <point x="49" y="50"/>
      <point x="94" y="12"/>
      <point x="134" y="-6" type="curve"/>
      <point x="177" y="-61"/>
      <point x="219" y="-115"/>
      <point x="261" y="-171" type="curve"/>
      <point x="318" y="-130" type="line"/>
      <point x="290" y="-98"/>
      <point x="255" y="-59"/>
      <point x="225" y="-13" type="curve"/>
      <point x="241" y="-15"/>
      <point x="259" y="-17"/>
      <point x="275" y="-17" type="curve" smooth="yes"/>
      <point x="415" y="-17"/>
      <point x="495" y="56"/>
      <point x="495" y="147" type="curve" smooth="yes"/>
      <point x="495" y="164"/>
      <point x="493" y="180"/>
      <point x="488" y="194" type="curve"/>
      <point x="604" y="194" type="line"/>
      <point x="603" y="187"/>
      <point x="603" y="179"/>
      <point x="603" y="172" type="curve" smooth="yes"/>
      <point x="603" y="54"/>
      <point x="694" y="-18"/>
      <point x="852" y="-18" type="curve" smooth="yes"/>
      <point x="907" y="-18"/>
      <point x="952" y="-11"/>
      <point x="1000" y="2" type="curve"/>
      <point x="994" y="26"/>
      <point x="986" y="50"/>
      <point x="980" y="74" type="curve"/>
      <point x="939" y="62"/>
      <point x="899" y="56"/>
      <point x="858" y="56" type="curve" smooth="yes"/>
      <point x="760" y="56"/>
      <point x="695" y="99"/>
      <point x="695" y="165" type="curve" smooth="yes"/>
      <point x="695" y="229"/>
      <point x="734" y="290"/>
      <point x="846" y="290" type="curve" smooth="yes"/>
      <point x="891" y="290"/>
      <point x="936" y="281"/>
      <point x="980" y="266" type="curve"/>
      <point x="986" y="290"/>
      <point x="994" y="315"/>
    </contour>
    <contour>
      <point x="455" y="260" type="line"/>
      <point x="421" y="296"/>
      <point x="366" y="314"/>
      <point x="296" y="314" type="curve" smooth="yes"/>
      <point x="212" y="314" type="line" smooth="yes"/>
      <point x="166" y="314"/>
      <point x="135" y="342"/>
      <point x="135" y="380" type="curve" smooth="yes"/>
      <point x="135" y="420"/>
      <point x="172" y="445"/>
      <point x="220" y="445" type="curve" smooth="yes"/>
      <point x="439" y="445" type="line"/>
      <point x="439" y="611" type="line"/>
      <point x="901" y="611" type="line"/>
      <point x="901" y="542" type="line"/>
      <point x="775" y="542" type="line" smooth="yes"/>
      <point x="685" y="542"/>
      <point x="624" y="490"/>
      <point x="624" y="413" type="curve" smooth="yes"/>
      <point x="624" y="376"/>
      <point x="644" y="342"/>
      <point x="684" y="318" type="curve"/>
      <point x="660" y="301"/>
      <point x="641" y="282"/>
      <point x="627" y="260" type="curve"/>
    </contour>
  </outline>
</glyph>
<glyph name="dv_KHa" format="1">
  <advance width="1165"/>
  <outline>
    <contour>
      <point x="1082" y="338" type="curve"/>
      <point x="1028" y="357"/>
      <point x="975" y="362"/>
      <point x="923" y="362" type="curve" smooth="yes"/>
      <point x="903" y="362"/>
      <point x="888" y="359"/>
      <point x="860" y="359" type="curve" smooth="yes"/>
      <point x="819" y="359"/>
      <point x="788" y="383"/>
      <point x="788" y="415" type="curve" smooth="yes"/>
      <point x="788" y="448"/>
      <point x="819" y="472"/>
      <point x="861" y="472" type="curve" smooth="yes"/>
      <point x="1071" y="472" type="line"/>
      <point x="1071" y="611" type="line"/>
      <point x="1176" y="611" type="line"/>
      <point x="1161" y="680" type="line"/>
      <point x="-11" y="680" type="line"/>
      <point x="-5" y="657"/>
      <point x="-1" y="634"/>
      <point x="3" y="611" type="curve"/>
      <point x="413" y="611" type="line"/>
      <point x="413" y="452" type="line"/>
      <point x="382" y="480"/>
      <point x="334" y="507"/>
      <point x="275" y="507" type="curve" smooth="yes"/>
      <point x="139" y="507"/>
      <point x="51" y="416"/>
      <point x="51" y="298" type="curve" smooth="yes"/>
      <point x="51" y="172"/>
      <point x="148" y="91"/>
      <point x="275" y="91" type="curve" smooth="yes"/>
      <point x="334" y="91"/>
      <point x="382" y="118"/>
      <point x="413" y="145" type="curve"/>
      <point x="413" y="0" type="line"/>
      <point x="499" y="-16" type="line"/>
      <point x="499" y="345" type="line"/>
      <point x="519" y="374"/>
      <point x="574" y="435"/>
      <point x="648" y="435" type="curve" smooth="yes"/>
      <point x="707" y="435" type="line"/>
      <point x="706" y="430"/>
      <point x="706" y="425"/>
      <point x="706" y="420" type="curve" smooth="yes"/>
      <point x="706" y="375"/>
      <point x="722" y="342"/>
      <point x="766" y="318" type="curve"/>
      <point x="715" y="282"/>
      <point x="685" y="232"/>
      <point x="685" y="172" type="curve" smooth="yes"/>
      <point x="685" y="54"/>
      <point x="778" y="-18"/>
      <point x="934" y="-18" type="curve" smooth="yes"/>
      <point x="989" y="-18"/>
      <point x="1034" y="-11"/>
      <point x="1082" y="2" type="curve"/>
      <point x="1076" y="26"/>
      <point x="1068" y="50"/>
      <point x="1062" y="74" type="curve"/>
      <point x="1021" y="62"/>
      <point x="983" y="57"/>
      <point x="940" y="57" type="curve" smooth="yes"/>
      <point x="838" y="57"/>
      <point x="773" y="101"/>
      <point x="773" y="172" type="curve" smooth="yes"/>
      <point x="773" y="238"/>
      <point x="839" y="290"/>
      <point x="928" y="290" type="curve" smooth="yes"/>
      <point x="973" y="290"/>
      <point x="1018" y="281"/>
      <point x="1062" y="266" type="curve"/>
      <point x="1068" y="290"/>
      <point x="1076" y="315"/>
    </contour>
    <contour>
      <point x="141" y="299" type="curve"/>
      <point x="142" y="379"/>
      <point x="201" y="435"/>
      <point x="272" y="435" type="curve" smooth="yes"/>
      <point x="352" y="435"/>
      <point x="388" y="385"/>
      <point x="413" y="350" type="curve"/>
      <point x="413" y="247" type="line"/>
      <point x="388" y="211"/>
      <point x="352" y="162"/>
      <point x="272" y="162" type="curve" smooth="yes"/>
      <point x="197" y="162"/>
      <point x="141" y="218"/>
    </contour>
    <contour>
      <point x="499" y="443" type="curve"/>
      <point x="499" y="611" type="line"/>
      <point x="983" y="611" type="line"/>
      <point x="983" y="542" type="line"/>
      <point x="857" y="542" type="line" smooth="yes"/>
      <point x="810" y="542"/>
      <point x="769" y="527"/>
      <point x="741" y="502" type="curve"/>
      <point x="646" y="502" type="line" smooth="yes"/>
      <point x="570" y="502"/>
      <point x="529" y="472"/>
    </contour>
  </outline>
</glyph>
<glyph name="dv_LHYa" format="1">
  <advance width="1629"/>
  <outline>
    <contour>
      <point x="1004" y="338" type="curve"/>
      <point x="950" y="357"/>
      <point x="897" y="362"/>
      <point x="845" y="362" type="curve" smooth="yes"/>
      <point x="825" y="362"/>
      <point x="810" y="359"/>
      <point x="782" y="359" type="curve" smooth="yes"/>
      <point x="741" y="359"/>
      <point x="710" y="383"/>
      <point x="710" y="415" type="curve" smooth="yes"/>
      <point x="710" y="448"/>
      <point x="741" y="472"/>
      <point x="783" y="472" type="curve" smooth="yes"/>
      <point x="1086" y="472" type="line" smooth="yes"/>
      <point x="1132" y="472"/>
      <point x="1152" y="455"/>
      <point x="1152" y="436" type="curve" smooth="yes"/>
      <point x="1152" y="406"/>
      <point x="1114" y="391"/>
      <point x="1075" y="380" type="curve"/>
      <point x="1060" y="361" type="line"/>
      <point x="1060" y="262"/>
      <point x="1166" y="171"/>
      <point x="1285" y="171" type="curve" smooth="yes"/>
      <point x="1348" y="171"/>
      <point x="1393" y="189"/>
      <point x="1427" y="217" type="curve"/>
      <point x="1427" y="0" type="line"/>
      <point x="1513" y="-16" type="line"/>
      <point x="1513" y="611" type="line"/>
      <point x="1641" y="611" type="line"/>
      <point x="1635" y="634"/>
      <point x="1631" y="657"/>
      <point x="1626" y="680" type="curve"/>
      <point x="-11" y="680" type="line"/>
      <point x="-5" y="657"/>
      <point x="-1" y="634"/>
      <point x="3" y="611" type="curve"/>
      <point x="905" y="611" type="line"/>
      <point x="905" y="542" type="line"/>
      <point x="779" y="542" type="line" smooth="yes"/>
      <point x="714" y="542"/>
      <point x="663" y="514"/>
      <point x="640" y="469" type="curve"/>
      <point x="619" y="479"/>
      <point x="592" y="485"/>
      <point x="564" y="485" type="curve" smooth="yes"/>
      <point x="503" y="485"/>
      <point x="451" y="460"/>
      <point x="419" y="413" type="curve"/>
      <point x="386" y="458"/>
      <point x="330" y="485"/>
      <point x="267" y="485" type="curve" smooth="yes"/>
      <point x="164" y="485"/>
      <point x="78" y="403"/>
      <point x="78" y="314" type="curve" smooth="yes"/>
      <point x="78" y="202"/>
      <point x="132" y="108"/>
      <point x="198" y="-19" type="curve"/>
      <point x="222" y="-11"/>
      <point x="245" y="-3"/>
      <point x="268" y="4" type="curve"/>
      <point x="198" y="146"/>
      <point x="160" y="212"/>
      <point x="160" y="307" type="curve" smooth="yes"/>
      <point x="160" y="359"/>
      <point x="210" y="411"/>
      <point x="267" y="411" type="curve" smooth="yes"/>
      <point x="350" y="411"/>
      <point x="379" y="348"/>
      <point x="380" y="270" type="curve" smooth="yes"/>
      <point x="380" y="168" type="line"/>
      <point x="462" y="150" type="line"/>
      <point x="462" y="273" type="line" smooth="yes"/>
      <point x="462" y="350"/>
      <point x="496" y="406"/>
      <point x="551" y="406" type="curve" smooth="yes"/>
      <point x="577" y="406"/>
      <point x="613" y="400"/>
      <point x="632" y="382" type="curve"/>
      <point x="639" y="356"/>
      <point x="658" y="335"/>
      <point x="688" y="318" type="curve"/>
      <point x="637" y="282"/>
      <point x="607" y="232"/>
      <point x="607" y="172" type="curve" smooth="yes"/>
      <point x="607" y="55"/>
      <point x="697" y="-18"/>
      <point x="856" y="-18" type="curve" smooth="yes"/>
      <point x="910" y="-18"/>
      <point x="960" y="-12"/>
      <point x="1004" y="2" type="curve"/>
      <point x="998" y="26"/>
      <point x="990" y="50"/>
      <point x="984" y="74" type="curve"/>
      <point x="943" y="62"/>
      <point x="905" y="57"/>
      <point x="862" y="57" type="curve" smooth="yes"/>
      <point x="760" y="57"/>
      <point x="695" y="101"/>
      <point x="695" y="172" type="curve" smooth="yes"/>
      <point x="695" y="244"/>
      <point x="765" y="289"/>
      <point x="862" y="289" type="curve"/>
      <point x="903" y="287"/>
      <point x="944" y="280"/>
      <point x="984" y="266" type="curve"/>
      <point x="990" y="290"/>
      <point x="998" y="315"/>
    </contour>
    <contour>
      <point x="1427" y="611" type="line"/>
      <point x="1427" y="379" type="line"/>
      <point x="1424" y="294"/>
      <point x="1372" y="243"/>
      <point x="1286" y="243" type="curve"/>
      <point x="1213" y="247"/>
      <point x="1157" y="291"/>
      <point x="1143" y="341" type="curve"/>
      <point x="1201" y="371"/>
      <point x="1228" y="393"/>
      <point x="1228" y="448" type="curve" smooth="yes"/>
      <point x="1228" y="492"/>
      <point x="1185" y="539"/>
      <point x="1109" y="539" type="curve" smooth="yes"/>
      <point x="993" y="539" type="line"/>
      <point x="993" y="611" type="line"/>
    </contour>
  </outline>
</glyph>
<glyph name="dv_LHa" format="1">
  <advance width="1085"/>
  <outline>
    <contour>
      <point x="1002" y="338" type="line"/>
      <point x="948" y="357"/>
      <point x="895" y="362"/>
      <point x="844" y="362" type="curve" smooth="yes"/>
      <point x="823" y="362"/>
      <point x="809" y="359"/>
      <point x="780" y="359" type="curve" smooth="yes"/>
      <point x="739" y="359"/>
      <point x="709" y="383"/>
      <point x="709" y="415" type="curve" smooth="yes"/>
      <point x="709" y="448"/>
      <point x="740" y="472"/>
      <point x="782" y="472" type="curve" smooth="yes"/>
      <point x="992" y="472" type="line"/>
      <point x="992" y="611" type="line"/>
      <point x="1097" y="611" type="line"/>
      <point x="1092" y="634"/>
      <point x="1087" y="657"/>
      <point x="1081" y="680" type="curve"/>
      <point x="-11" y="680" type="line"/>
      <point x="-5" y="657"/>
      <point x="-1" y="634"/>
      <point x="3" y="611" type="curve"/>
      <point x="903" y="611" type="line"/>
      <point x="903" y="542" type="line"/>
      <point x="777" y="542" type="line" smooth="yes"/>
      <point x="712" y="542"/>
      <point x="660" y="514"/>
      <point x="638" y="467" type="curve"/>
      <point x="615" y="479"/>
      <point x="590" y="485"/>
      <point x="561" y="485" type="curve" smooth="yes"/>
      <point x="501" y="485"/>
      <point x="451" y="460"/>
      <point x="419" y="413" type="curve"/>
      <point x="386" y="458"/>
      <point x="330" y="485"/>
      <point x="267" y="485" type="curve" smooth="yes"/>
      <point x="164" y="485"/>
      <point x="78" y="403"/>
      <point x="78" y="314" type="curve" smooth="yes"/>
      <point x="78" y="202"/>
      <point x="132" y="108"/>
      <point x="198" y="-19" type="curve"/>
      <point x="222" y="-11"/>
      <point x="245" y="-3"/>
      <point x="268" y="4" type="curve"/>
      <point x="198" y="146"/>
      <point x="160" y="212"/>
      <point x="160" y="307" type="curve" smooth="yes"/>
      <point x="160" y="359"/>
      <point x="210" y="411"/>
      <point x="267" y="411" type="curve" smooth="yes"/>
      <point x="384" y="411"/>
      <point x="380" y="300"/>
      <point x="380" y="168" type="curve"/>
      <point x="462" y="150" type="line"/>
      <point x="462" y="273" type="line" smooth="yes"/>
      <point x="462" y="355"/>
      <point x="499" y="411"/>
      <point x="560" y="411" type="curve" smooth="yes"/>
      <point x="598" y="411"/>
      <point x="616" y="396"/>
      <point x="630" y="384" type="curve"/>
      <point x="637" y="357"/>
      <point x="657" y="335"/>
      <point x="687" y="318" type="curve"/>
      <point x="636" y="282"/>
      <point x="606" y="232"/>
      <point x="606" y="172" type="curve" smooth="yes"/>
      <point x="606" y="53"/>
      <point x="699" y="-18"/>
      <point x="854" y="-18" type="curve" smooth="yes"/>
      <point x="908" y="-18"/>
      <point x="955" y="-12"/>
      <point x="1002" y="2" type="curve"/>
      <point x="983" y="74" type="line"/>
      <point x="941" y="62"/>
      <point x="902" y="57"/>
      <point x="861" y="57" type="curve" smooth="yes"/>
      <point x="760" y="57"/>
      <point x="693" y="100"/>
      <point x="693" y="172" type="curve" smooth="yes"/>
      <point x="693" y="238"/>
      <point x="759" y="290"/>
      <point x="848" y="290" type="curve" smooth="yes"/>
      <point x="894" y="290"/>
      <point x="939" y="281"/>
      <point x="983" y="266" type="curve"/>
    </contour>
  </outline>
</glyph>
<glyph name="dv_MHa" format="1">
  <advance width="878"/>
  <outline>
    <contour>
      <point x="796" y="338" type="curve"/>
      <point x="742" y="357"/>
      <point x="689" y="362"/>
      <point x="637" y="362" type="curve" smooth="yes"/>
      <point x="617" y="362"/>
      <point x="602" y="359"/>
      <point x="574" y="359" type="curve" smooth="yes"/>
      <point x="533" y="359"/>
      <point x="502" y="383"/>
      <point x="502" y="415" type="curve" smooth="yes"/>
      <point x="502" y="448"/>
      <point x="535" y="472"/>
      <point x="575" y="472" type="curve" smooth="yes"/>
      <point x="785" y="472" type="line"/>
      <point x="785" y="611" type="line"/>
      <point x="890" y="611" type="line"/>
      <point x="875" y="680" type="line"/>
      <point x="-11" y="680" type="line"/>
      <point x="-5" y="657"/>
      <point x="-1" y="634"/>
      <point x="3" y="611" type="curve"/>
      <point x="120" y="611" type="line"/>
      <point x="120" y="322" type="line"/>
      <point x="74" y="322"/>
      <point x="51" y="306"/>
      <point x="51" y="280" type="curve" smooth="yes"/>
      <point x="51" y="228"/>
      <point x="107" y="171"/>
      <point x="170" y="171" type="curve" smooth="yes"/>
      <point x="193" y="171"/>
      <point x="208" y="213"/>
      <point x="208" y="255" type="curve"/>
      <point x="423" y="255" type="line"/>
      <point x="407" y="231"/>
      <point x="399" y="202"/>
      <point x="399" y="172" type="curve" smooth="yes"/>
      <point x="399" y="53"/>
      <point x="491" y="-18"/>
      <point x="647" y="-18" type="curve" smooth="yes"/>
      <point x="702" y="-18"/>
      <point x="746" y="-12"/>
      <point x="796" y="2" type="curve"/>
      <point x="789" y="26"/>
      <point x="782" y="50"/>
      <point x="776" y="74" type="curve"/>
      <point x="735" y="62"/>
      <point x="696" y="56"/>
      <point x="654" y="56" type="curve" smooth="yes"/>
      <point x="558" y="56"/>
      <point x="491" y="95"/>
      <point x="491" y="162" type="curve" smooth="yes"/>
      <point x="491" y="235"/>
      <point x="543" y="290"/>
      <point x="641" y="290" type="curve" smooth="yes"/>
      <point x="687" y="290"/>
      <point x="732" y="281"/>
      <point x="776" y="266" type="curve"/>
      <point x="782" y="290"/>
      <point x="789" y="315"/>
    </contour>
    <contour>
      <point x="205" y="322" type="curve"/>
      <point x="205" y="611" type="line"/>
      <point x="696" y="611" type="line"/>
      <point x="696" y="542" type="line"/>
      <point x="570" y="542" type="line" smooth="yes"/>
      <point x="484" y="542"/>
      <point x="418" y="493"/>
      <point x="418" y="415" type="curve" smooth="yes"/>
      <point x="418" y="377"/>
      <point x="437" y="347"/>
      <point x="474" y="323" type="curve"/>
      <point x="385" y="323"/>
      <point x="294" y="322"/>
    </contour>
  </outline>
</glyph>
<glyph name="dv_NHYa" format="1">
  <advance width="1348"/>
  <outline>
    <contour>
      <point x="729" y="338" type="curve"/>
      <point x="675" y="357"/>
      <point x="622" y="362"/>
      <point x="570" y="362" type="curve" smooth="yes"/>
      <point x="550" y="362"/>
      <point x="535" y="359"/>
      <point x="507" y="359" type="curve" smooth="yes"/>
      <point x="466" y="359"/>
      <point x="435" y="383"/>
      <point x="435" y="415" type="curve" smooth="yes"/>
      <point x="435" y="448"/>
      <point x="466" y="472"/>
      <point x="508" y="472" type="curve" smooth="yes"/>
      <point x="804" y="472" type="line" smooth="yes"/>
      <point x="850" y="472"/>
      <point x="870" y="455"/>
      <point x="870" y="436" type="curve" smooth="yes"/>
      <point x="870" y="389"/>
      <point x="809" y="404"/>
      <point x="778" y="361" type="curve"/>
      <point x="778" y="262"/>
      <point x="884" y="171"/>
      <point x="1003" y="171" type="curve" smooth="yes"/>
      <point x="1066" y="171"/>
      <point x="1112" y="189"/>
      <point x="1145" y="217" type="curve"/>
      <point x="1145" y="0" type="line"/>
      <point x="1232" y="-16" type="line"/>
      <point x="1232" y="611" type="line"/>
      <point x="1359" y="611" type="line"/>
      <point x="1344" y="680" type="line"/>
      <point x="-11" y="680" type="line"/>
      <point x="-5" y="657"/>
      <point x="-1" y="634"/>
      <point x="3" y="611" type="curve"/>
      <point x="630" y="611" type="line"/>
      <point x="630" y="542" type="line"/>
      <point x="540" y="542" type="line" smooth="yes"/>
      <point x="433" y="542"/>
      <point x="351" y="510"/>
      <point x="351" y="415" type="curve" smooth="yes"/>
      <point x="351" y="402"/>
      <point x="354" y="391"/>
      <point x="358" y="381" type="curve"/>
      <point x="79" y="381" type="line" smooth="yes"/>
      <point x="49" y="381"/>
      <point x="35" y="364"/>
      <point x="35" y="339" type="curve" smooth="yes"/>
      <point x="35" y="285"/>
      <point x="95" y="230"/>
      <point x="155" y="230" type="curve" smooth="yes"/>
      <point x="173" y="230"/>
      <point x="186" y="273"/>
      <point x="186" y="315" type="curve"/>
      <point x="385" y="315" type="line"/>
      <point x="406" y="310" type="line"/>
      <point x="360" y="276"/>
      <point x="332" y="229"/>
      <point x="332" y="172" type="curve" smooth="yes"/>
      <point x="332" y="52"/>
      <point x="427" y="-18"/>
      <point x="581" y="-18" type="curve" smooth="yes"/>
      <point x="636" y="-18"/>
      <point x="681" y="-11"/>
      <point x="729" y="2" type="curve"/>
      <point x="723" y="26"/>
      <point x="715" y="50"/>
      <point x="709" y="74" type="curve"/>
      <point x="668" y="62"/>
      <point x="630" y="57"/>
      <point x="587" y="57" type="curve" smooth="yes"/>
      <point x="485" y="57"/>
      <point x="420" y="101"/>
      <point x="420" y="172" type="curve" smooth="yes"/>
      <point x="420" y="241"/>
      <point x="484" y="290"/>
      <point x="575" y="290" type="curve" smooth="yes"/>
      <point x="620" y="290"/>
      <point x="665" y="281"/>
      <point x="709" y="266" type="curve"/>
      <point x="715" y="290"/>
      <point x="723" y="315"/>
    </contour>
    <contour>
      <point x="1145" y="611" type="line"/>
      <point x="1145" y="379" type="line"/>
      <point x="1143" y="294"/>
      <point x="1089" y="243"/>
      <point x="1005" y="243" type="curve"/>
      <point x="931" y="247"/>
      <point x="875" y="291"/>
      <point x="861" y="341" type="curve"/>
      <point x="919" y="371"/>
      <point x="945" y="393"/>
      <point x="945" y="448" type="curve" smooth="yes"/>
      <point x="945" y="492"/>
      <point x="904" y="539"/>
      <point x="826" y="539" type="curve" smooth="yes"/>
      <point x="718" y="539" type="line"/>
      <point x="718" y="611" type="line"/>
    </contour>
  </outline>
</glyph>
<glyph name="dv_NHa" format="1">
  <advance width="806"/>
  <outline>
    <contour>
      <point x="723" y="338" type="line"/>
      <point x="669" y="357"/>
      <point x="616" y="362"/>
      <point x="564" y="362" type="curve" smooth="yes"/>
      <point x="544" y="362"/>
      <point x="529" y="359"/>
      <point x="501" y="359" type="curve" smooth="yes"/>
      <point x="462" y="359"/>
      <point x="429" y="383"/>
      <point x="429" y="415" type="curve" smooth="yes"/>
      <point x="429" y="448"/>
      <point x="463" y="472"/>
      <point x="503" y="472" type="curve" smooth="yes"/>
      <point x="712" y="472" type="line"/>
      <point x="712" y="611" type="line"/>
      <point x="818" y="611" type="line"/>
      <point x="812" y="634"/>
      <point x="807" y="657"/>
      <point x="802" y="680" type="curve"/>
      <point x="-11" y="680" type="line"/>
      <point x="-5" y="657"/>
      <point x="-1" y="634"/>
      <point x="3" y="611" type="curve"/>
      <point x="624" y="611" type="line"/>
      <point x="624" y="542" type="line"/>
      <point x="498" y="542" type="line" smooth="yes"/>
      <point x="411" y="542"/>
      <point x="346" y="493"/>
      <point x="346" y="415" type="curve" smooth="yes"/>
      <point x="346" y="402"/>
      <point x="348" y="391"/>
      <point x="352" y="381" type="curve"/>
      <point x="79" y="381" type="line" smooth="yes"/>
      <point x="49" y="381"/>
      <point x="35" y="364"/>
      <point x="35" y="339" type="curve" smooth="yes"/>
      <point x="35" y="285"/>
      <point x="95" y="230"/>
      <point x="155" y="230" type="curve" smooth="yes"/>
      <point x="173" y="230"/>
      <point x="186" y="273"/>
      <point x="186" y="315" type="curve"/>
      <point x="377" y="315" type="line"/>
      <point x="400" y="310" type="line"/>
      <point x="354" y="276"/>
      <point x="326" y="229"/>
      <point x="326" y="172" type="curve" smooth="yes"/>
      <point x="326" y="53"/>
      <point x="419" y="-18"/>
      <point x="575" y="-18" type="curve" smooth="yes"/>
      <point x="630" y="-18"/>
      <point x="679" y="-11"/>
      <point x="723" y="2" type="curve"/>
      <point x="717" y="26"/>
      <point x="710" y="50"/>
      <point x="703" y="74" type="curve"/>
      <point x="663" y="62"/>
      <point x="622" y="56"/>
      <point x="581" y="56" type="curve" smooth="yes"/>
      <point x="492" y="56"/>
      <point x="418" y="90"/>
      <point x="418" y="167" type="curve" smooth="yes"/>
      <point x="418" y="242"/>
      <point x="474" y="290"/>
      <point x="569" y="290" type="curve" smooth="yes"/>
      <point x="615" y="290"/>
      <point x="660" y="281"/>
      <point x="703" y="266" type="curve"/>
    </contour>
  </outline>
</glyph>
<glyph name="dv_NyHa" format="1">
  <advance width="979"/>
  <outline>
    <contour>
      <point x="208" y="66" type="curve" smooth="yes"/>
      <point x="321" y="66"/>
      <point x="409" y="123"/>
      <point x="424" y="240" type="curve"/>
      <point x="518" y="240" type="line"/>
      <point x="506" y="220"/>
      <point x="500" y="197"/>
      <point x="500" y="172" type="curve" smooth="yes"/>
      <point x="500" y="53"/>
      <point x="594" y="-18"/>
      <point x="748" y="-18" type="curve" smooth="yes"/>
      <point x="802" y="-18"/>
      <point x="849" y="-12"/>
      <point x="896" y="2" type="curve"/>
      <point x="877" y="74" type="line"/>
      <point x="836" y="62"/>
      <point x="795" y="56"/>
      <point x="755" y="56" type="curve" smooth="yes"/>
      <point x="666" y="56"/>
      <point x="592" y="90"/>
      <point x="592" y="172" type="curve" smooth="yes"/>
      <point x="592" y="251"/>
      <point x="647" y="290"/>
      <point x="742" y="290" type="curve" smooth="yes"/>
      <point x="788" y="290"/>
      <point x="833" y="281"/>
      <point x="877" y="266" type="curve"/>
      <point x="896" y="338" type="line"/>
      <point x="842" y="357"/>
      <point x="789" y="362"/>
      <point x="738" y="362" type="curve" smooth="yes"/>
      <point x="717" y="362"/>
      <point x="703" y="359"/>
      <point x="674" y="359" type="curve" smooth="yes"/>
      <point x="633" y="359"/>
      <point x="603" y="383"/>
      <point x="603" y="415" type="curve" smooth="yes"/>
      <point x="603" y="448"/>
      <point x="634" y="472"/>
      <point x="676" y="472" type="curve" smooth="yes"/>
      <point x="886" y="472" type="line"/>
      <point x="886" y="611" type="line"/>
      <point x="991" y="611" type="line"/>
      <point x="986" y="634"/>
      <point x="981" y="657"/>
      <point x="975" y="680" type="curve"/>
      <point x="-11" y="680" type="line"/>
      <point x="-5" y="657"/>
      <point x="-1" y="634"/>
      <point x="3" y="611" type="curve"/>
      <point x="797" y="611" type="line"/>
      <point x="797" y="542" type="line"/>
      <point x="671" y="542" type="line" smooth="yes"/>
      <point x="583" y="542"/>
      <point x="520" y="491"/>
      <point x="520" y="413" type="curve" smooth="yes"/>
      <point x="520" y="376"/>
      <point x="540" y="342"/>
      <point x="581" y="318" type="curve"/>
      <point x="570" y="310" type="line"/>
      <point x="424" y="310" type="line"/>
      <point x="410" y="430"/>
      <point x="322" y="489"/>
      <point x="208" y="489" type="curve" smooth="yes"/>
      <point x="166" y="489"/>
      <point x="124" y="484"/>
      <point x="85" y="470" type="curve"/>
      <point x="103" y="403" type="line"/>
      <point x="136" y="412"/>
      <point x="174" y="419"/>
      <point x="207" y="419" type="curve" smooth="yes"/>
      <point x="288" y="419"/>
      <point x="343" y="367"/>
      <point x="343" y="278" type="curve" smooth="yes"/>
      <point x="343" y="188"/>
      <point x="286" y="137"/>
      <point x="206" y="137" type="curve" smooth="yes"/>
      <point x="137" y="137"/>
      <point x="75" y="163"/>
      <point x="28" y="201" type="curve"/>
      <point x="12" y="126" type="line"/>
      <point x="58" y="94"/>
      <point x="126" y="66"/>
    </contour>
  </outline>
</glyph>
<glyph name="dv_PhHa" format="1">
  <advance width="1215"/>
  <outline>
    <contour>
      <point x="1132" y="338" type="line"/>
      <point x="1078" y="357"/>
      <point x="1025" y="362"/>
      <point x="973" y="362" type="curve" smooth="yes"/>
      <point x="953" y="362"/>
      <point x="938" y="359"/>
      <point x="910" y="359" type="curve" smooth="yes"/>
      <point x="869" y="359"/>
      <point x="838" y="383"/>
      <point x="838" y="415" type="curve" smooth="yes"/>
      <point x="838" y="448"/>
      <point x="870" y="472"/>
      <point x="912" y="472" type="curve" smooth="yes"/>
      <point x="1121" y="472" type="line"/>
      <point x="1121" y="611" type="line"/>
      <point x="1227" y="611" type="line"/>
      <point x="1221" y="634"/>
      <point x="1216" y="657"/>
      <point x="1211" y="680" type="curve"/>
      <point x="-11" y="680" type="line"/>
      <point x="-5" y="657"/>
      <point x="-1" y="634"/>
      <point x="3" y="611" type="curve"/>
      <point x="95" y="611" type="line"/>
      <point x="95" y="383" type="line" smooth="yes"/>
      <point x="95" y="249"/>
      <point x="184" y="171"/>
      <point x="312" y="171" type="curve" smooth="yes"/>
      <point x="368" y="171"/>
      <point x="420" y="189"/>
      <point x="454" y="218" type="curve"/>
      <point x="454" y="0" type="line"/>
      <point x="541" y="-16" type="line"/>
      <point x="541" y="345" type="line"/>
      <point x="563" y="379"/>
      <point x="604" y="435"/>
      <point x="689" y="435" type="curve" smooth="yes"/>
      <point x="757" y="435" type="line"/>
      <point x="757" y="432"/>
      <point x="756" y="428"/>
      <point x="756" y="425" type="curve" smooth="yes"/>
      <point x="756" y="378"/>
      <point x="771" y="343"/>
      <point x="816" y="318" type="curve"/>
      <point x="765" y="282"/>
      <point x="735" y="232"/>
      <point x="735" y="172" type="curve" smooth="yes"/>
      <point x="735" y="54"/>
      <point x="828" y="-18"/>
      <point x="984" y="-18" type="curve" smooth="yes"/>
      <point x="1039" y="-18"/>
      <point x="1088" y="-11"/>
      <point x="1132" y="2" type="curve"/>
      <point x="1126" y="26"/>
      <point x="1119" y="50"/>
      <point x="1112" y="74" type="curve"/>
      <point x="1072" y="62"/>
      <point x="1031" y="56"/>
      <point x="990" y="56" type="curve" smooth="yes"/>
      <point x="891" y="56"/>
      <point x="823" y="101"/>
      <point x="823" y="172" type="curve" smooth="yes"/>
      <point x="823" y="241"/>
      <point x="887" y="290"/>
      <point x="978" y="290" type="curve" smooth="yes"/>
      <point x="1024" y="290"/>
      <point x="1069" y="281"/>
      <point x="1112" y="266" type="curve"/>
    </contour>
    <contour>
      <point x="454" y="379" type="line"/>
      <point x="451" y="294"/>
      <point x="401" y="244"/>
      <point x="317" y="244" type="curve" smooth="yes"/>
      <point x="227" y="244"/>
      <point x="181" y="297"/>
      <point x="181" y="383" type="curve" smooth="yes"/>
      <point x="181" y="611" type="line"/>
      <point x="454" y="611" type="line"/>
    </contour>
    <contour>
      <point x="541" y="611" type="line"/>
      <point x="1033" y="611" type="line"/>
      <point x="1033" y="542" type="line"/>
      <point x="962" y="542" type="line" smooth="yes"/>
      <point x="886" y="542"/>
      <point x="832" y="539"/>
      <point x="792" y="502" type="curve"/>
      <point x="687" y="502" type="line" smooth="yes"/>
      <point x="611" y="502"/>
      <point x="571" y="472"/>
      <point x="541" y="443" type="curve"/>
    </contour>
  </outline>
</glyph>
<glyph name="dv_THa" format="1">
  <advance width="897"/>
  <outline>
    <contour>
      <point x="814" y="338" type="line"/>
      <point x="760" y="357"/>
      <point x="707" y="362"/>
      <point x="655" y="362" type="curve" smooth="yes"/>
      <point x="635" y="362"/>
      <point x="620" y="359"/>
      <point x="592" y="359" type="curve" smooth="yes"/>
      <point x="551" y="359"/>
      <point x="520" y="383"/>
      <point x="520" y="415" type="curve" smooth="yes"/>
      <point x="520" y="448"/>
      <point x="552" y="472"/>
      <point x="594" y="472" type="curve" smooth="yes"/>
      <point x="803" y="472" type="line"/>
      <point x="803" y="611" type="line"/>
      <point x="909" y="611" type="line"/>
      <point x="903" y="634"/>
      <point x="898" y="657"/>
      <point x="893" y="680" type="curve"/>
      <point x="-11" y="680" type="line"/>
      <point x="-5" y="657"/>
      <point x="-1" y="634"/>
      <point x="3" y="611" type="curve"/>
      <point x="715" y="611" type="line"/>
      <point x="715" y="542" type="line"/>
      <point x="589" y="542" type="line" smooth="yes"/>
      <point x="517" y="542"/>
      <point x="462" y="508"/>
      <point x="445" y="454" type="curve"/>
      <point x="241" y="454" type="line" smooth="yes"/>
      <point x="130" y="454"/>
      <point x="66" y="385"/>
      <point x="66" y="293" type="curve" smooth="yes"/>
      <point x="66" y="198"/>
      <point x="152" y="77"/>
      <point x="219" y="-19" type="curve"/>
      <point x="244" y="-10"/>
      <point x="269" y="-3"/>
      <point x="294" y="5" type="curve"/>
      <point x="231" y="102"/>
      <point x="153" y="214"/>
      <point x="153" y="289" type="curve" smooth="yes"/>
      <point x="153" y="348"/>
      <point x="195" y="384"/>
      <point x="278" y="384" type="curve" smooth="yes"/>
      <point x="441" y="384" type="line"/>
      <point x="449" y="357"/>
      <point x="469" y="335"/>
      <point x="498" y="318" type="curve"/>
      <point x="447" y="282"/>
      <point x="417" y="232"/>
      <point x="417" y="172" type="curve" smooth="yes"/>
      <point x="417" y="54"/>
      <point x="510" y="-18"/>
      <point x="666" y="-18" type="curve" smooth="yes"/>
      <point x="721" y="-18"/>
      <point x="770" y="-11"/>
      <point x="814" y="2" type="curve"/>
      <point x="808" y="26"/>
      <point x="801" y="50"/>
      <point x="794" y="74" type="curve"/>
      <point x="753" y="62"/>
      <point x="714" y="57"/>
      <point x="673" y="57" type="curve" smooth="yes"/>
      <point x="572" y="57"/>
      <point x="505" y="100"/>
      <point x="505" y="172" type="curve" smooth="yes"/>
      <point x="505" y="244"/>
      <point x="575" y="289"/>
      <point x="672" y="289" type="curve"/>
      <point x="714" y="287"/>
      <point x="754" y="280"/>
      <point x="794" y="266" type="curve"/>
    </contour>
  </outline>
</glyph>
<glyph name="dv_ThHa" format="1">
  <advance width="899"/>
  <outline>
    <contour>
      <point x="816" y="338" type="line"/>
      <point x="762" y="357"/>
      <point x="709" y="362"/>
      <point x="657" y="362" type="curve" smooth="yes"/>
      <point x="637" y="362"/>
      <point x="622" y="359"/>
      <point x="594" y="359" type="curve" smooth="yes"/>
      <point x="555" y="359"/>
      <point x="522" y="383"/>
      <point x="522" y="415" type="curve" smooth="yes"/>
      <point x="522" y="448"/>
      <point x="556" y="472"/>
      <point x="596" y="472" type="curve" smooth="yes"/>
      <point x="805" y="472" type="line"/>
      <point x="805" y="611" type="line"/>
      <point x="911" y="611" type="line"/>
      <point x="905" y="634"/>
      <point x="900" y="657"/>
      <point x="895" y="680" type="curve"/>
      <point x="345" y="680" type="line"/>
      <point x="350" y="657"/>
      <point x="354" y="634"/>
      <point x="360" y="611" type="curve"/>
      <point x="717" y="611" type="line"/>
      <point x="717" y="542" type="line"/>
      <point x="591" y="542" type="line" smooth="yes"/>
      <point x="504" y="542"/>
      <point x="439" y="493"/>
      <point x="439" y="415" type="curve" smooth="yes"/>
      <point x="439" y="375"/>
      <point x="460" y="342"/>
      <point x="500" y="318" type="curve"/>
      <point x="475" y="300"/>
      <point x="455" y="279"/>
      <point x="441" y="256" type="curve"/>
      <point x="417" y="236"/>
      <point x="378" y="222"/>
      <point x="339" y="222" type="curve" smooth="yes"/>
      <point x="254" y="222"/>
      <point x="203" y="283"/>
      <point x="191" y="335" type="curve"/>
      <point x="253" y="367"/>
      <point x="321" y="404"/>
      <point x="321" y="524" type="curve" smooth="yes"/>
      <point x="321" y="622"/>
      <point x="243" y="695"/>
      <point x="167" y="695" type="curve" smooth="yes"/>
      <point x="94" y="695"/>
      <point x="45" y="648"/>
      <point x="45" y="585" type="curve" smooth="yes"/>
      <point x="45" y="525"/>
      <point x="99" y="486"/>
      <point x="157" y="486" type="curve" smooth="yes"/>
      <point x="197" y="486"/>
      <point x="233" y="509"/>
      <point x="247" y="534" type="curve"/>
      <point x="247" y="525" type="line" smooth="yes"/>
      <point x="247" y="423"/>
      <point x="169" y="394"/>
      <point x="124" y="381" type="curve"/>
      <point x="118" y="374"/>
      <point x="113" y="369"/>
      <point x="108" y="362" type="curve"/>
      <point x="108" y="259"/>
      <point x="204" y="150"/>
      <point x="338" y="150" type="curve" smooth="yes"/>
      <point x="368" y="150"/>
      <point x="396" y="154"/>
      <point x="421" y="163" type="curve"/>
      <point x="434" y="97"/>
      <point x="448" y="52"/>
      <point x="505" y="19" type="curve" smooth="yes"/>
      <point x="545" y="-5"/>
      <point x="601" y="-18"/>
      <point x="668" y="-18" type="curve" smooth="yes"/>
      <point x="723" y="-18"/>
      <point x="772" y="-11"/>
      <point x="816" y="2" type="curve"/>
      <point x="810" y="26"/>
      <point x="803" y="50"/>
      <point x="796" y="74" type="curve"/>
      <point x="756" y="62"/>
      <point x="715" y="56"/>
      <point x="674" y="56" type="curve" smooth="yes"/>
      <point x="585" y="56"/>
      <point x="511" y="90"/>
      <point x="511" y="155" type="curve" smooth="yes"/>
      <point x="511" y="230"/>
      <point x="567" y="290"/>
      <point x="662" y="290" type="curve" smooth="yes"/>
      <point x="708" y="290"/>
      <point x="753" y="281"/>
      <point x="796" y="266" type="curve"/>
    </contour>
    <contour>
      <point x="164" y="632" type="curve" smooth="yes"/>
      <point x="188" y="632"/>
      <point x="209" y="617"/>
      <point x="221" y="597" type="curve"/>
      <point x="214" y="570"/>
      <point x="196" y="545"/>
      <point x="161" y="545" type="curve" smooth="yes"/>
      <point x="137" y="545"/>
      <point x="114" y="560"/>
      <point x="114" y="586" type="curve" smooth="yes"/>
      <point x="114" y="617"/>
      <point x="139" y="632"/>
    </contour>
  </outline>
</glyph>
<glyph name="dv_VHa" format="1">
  <advance width="1024"/>
  <outline>
    <contour>
      <point x="941" y="338" type="curve"/>
      <point x="887" y="357"/>
      <point x="834" y="362"/>
      <point x="782" y="362" type="curve" smooth="yes"/>
      <point x="762" y="362"/>
      <point x="747" y="359"/>
      <point x="719" y="359" type="curve" smooth="yes"/>
      <point x="678" y="359"/>
      <point x="647" y="383"/>
      <point x="647" y="415" type="curve" smooth="yes"/>
      <point x="647" y="448"/>
      <point x="678" y="472"/>
      <point x="720" y="472" type="curve" smooth="yes"/>
      <point x="930" y="472" type="line"/>
      <point x="930" y="611" type="line"/>
      <point x="1035" y="611" type="line"/>
      <point x="1020" y="680" type="line"/>
      <point x="-11" y="680" type="line"/>
      <point x="-5" y="657"/>
      <point x="-1" y="634"/>
      <point x="3" y="611" type="curve"/>
      <point x="842" y="611" type="line"/>
      <point x="842" y="542" type="line"/>
      <point x="716" y="542" type="line" smooth="yes"/>
      <point x="629" y="542"/>
      <point x="563" y="493"/>
      <point x="563" y="415" type="curve" smooth="yes"/>
      <point x="563" y="375"/>
      <point x="585" y="342"/>
      <point x="625" y="318" type="curve"/>
      <point x="574" y="282"/>
      <point x="544" y="232"/>
      <point x="544" y="172" type="curve" smooth="yes"/>
      <point x="544" y="54"/>
      <point x="637" y="-18"/>
      <point x="793" y="-18" type="curve" smooth="yes"/>
      <point x="848" y="-18"/>
      <point x="893" y="-11"/>
      <point x="941" y="2" type="curve"/>
      <point x="935" y="26"/>
      <point x="927" y="50"/>
      <point x="921" y="74" type="curve"/>
      <point x="880" y="62"/>
      <point x="842" y="57"/>
      <point x="799" y="57" type="curve" smooth="yes"/>
      <point x="697" y="57"/>
      <point x="632" y="101"/>
      <point x="632" y="172" type="curve" smooth="yes"/>
      <point x="632" y="244"/>
      <point x="702" y="289"/>
      <point x="799" y="289" type="curve"/>
      <point x="840" y="287"/>
      <point x="881" y="280"/>
      <point x="921" y="266" type="curve"/>
      <point x="927" y="290"/>
      <point x="935" y="315"/>
    </contour>
    <contour>
      <point x="51" y="298" type="curve" smooth="yes"/>
      <point x="51" y="180"/>
      <point x="148" y="91"/>
      <point x="275" y="91" type="curve" smooth="yes"/>
      <point x="406" y="91"/>
      <point x="493" y="193"/>
      <point x="493" y="299" type="curve" smooth="yes"/>
      <point x="493" y="414"/>
      <point x="398" y="505"/>
      <point x="273" y="507" type="curve"/>
      <point x="139" y="506"/>
      <point x="51" y="410"/>
    </contour>
    <contour>
      <point x="272" y="435" type="curve" smooth="yes"/>
      <point x="348" y="435"/>
      <point x="404" y="379"/>
      <point x="404" y="298" type="curve" smooth="yes"/>
      <point x="404" y="227"/>
      <point x="354" y="162"/>
      <point x="272" y="162" type="curve" smooth="yes"/>
      <point x="197" y="162"/>
      <point x="141" y="218"/>
      <point x="141" y="299" type="curve" smooth="yes"/>
      <point x="141" y="370"/>
      <point x="191" y="435"/>
    </contour>
  </outline>
</glyph>
